<svg id="Layer_1" data-name="Layer 1" xmlns="http://www.w3.org/2000/svg" viewBox="0 0 369.65 370.72">
  <defs>
    <style>
      .cls-1 {
        fill: #0e2f4f;
      }

      .cls-2 {
        fill: #f49d19;
      }
    </style>
  </defs>
  <g>
    <path class="cls-1" d="M475,958c0-15.21-.1-30.42.06-45.62,0-3.22-.53-4.43-4.14-4.34-11.71.27-23.43.12-35.15.09-8.1,0-12.39-4.37-12.43-12.49,0-.5,0-1,0-1.49.38-4.87.31-8.66-5.78-11-6.29-2.41-8.58-8.71-7.92-15.53s4.34-11.86,10.88-14.28c2.23-.82,3-1.74,2.89-4.13-.2-7.6-.09-15.21-.07-22.81,0-8.43,4.24-12.71,12.54-12.77,4,0,8.37,1,11.85-.3,3.66-1.41,3.44-6.66,5.54-9.95,9.3-14.59,22.37-22.84,39.77-23.29,13.95-.36,27.92-.27,41.88,0a44.48,44.48,0,0,1,43.4,44c.09,16.33,0,32.66,0,49-.06,14.6-8,25.46-21.94,29.8-2.66.83-2.3,2.42-2.3,4.23q0,47.68,0,95.35c0,11.71-6.23,20.45-16.67,23.3a21.74,21.74,0,0,1-20.9-4.79c-1.54-1.32-2.24-1.41-3.84,0-7.17,6.24-15.44,7.44-24,3.71-8.81-3.82-13.41-11-13.55-20.6C474.84,988.61,475,973.28,475,958Z" transform="translate(-409.53 -655.94)"/>
    <path class="cls-1" d="M779.18,743.73a87.77,87.77,0,0,1-78.41,87.17c-25.44,2.75-47.69-4.74-67.11-21.08a7.14,7.14,0,0,0-6-1.78c-12.14,1.36-24.3,2.48-36.45,3.77a4.94,4.94,0,0,1-5.11-2.31,6.07,6.07,0,0,1,0-6.7c4.37-7.53,8.22-15.41,13.09-22.6,5.55-8.19,6.86-16.15,5.29-26.23-7-45,25.85-89,71-96.7,48.37-8.21,92.69,22.32,102.19,70.43A102.63,102.63,0,0,1,779.18,743.73Z" transform="translate(-409.53 -655.94)"/>
    <path class="cls-1" d="M549.83,724c-.7,11.55-6.39,23-17.85,31.25-10.26,7.35-22.68,7.3-33.24.35-18.62-12.25-24.05-38.16-11.53-55a34.12,34.12,0,0,1,38.23-12.25C540,693.13,549.92,706.62,549.83,724Z" transform="translate(-409.53 -655.94)"/>
    <path class="cls-1" d="M610.32,864.35c0-5.73-.05-11.46,0-17.19,0-4.24,1.91-6.32,6.1-6.36q17.56-.16,35.14,0c4.2,0,6.25,2,6.3,6.23q.17,17.55,0,35.13c0,4.2-2.37,6.29-6.7,6.32q-17,.09-34,0c-4.69,0-6.8-2.23-6.83-6.92C610.28,875.81,610.32,870.08,610.32,864.35Z" transform="translate(-409.53 -655.94)"/>
    <path class="cls-1" d="M610.32,991c0-5.61,0-11.21,0-16.82,0-4.74,1.81-6.76,6.43-6.8q17.37-.15,34.75,0c4.4,0,6.35,2,6.39,6.53q.14,17.19,0,34.38c0,4.71-2.24,6.7-7,6.71q-16.82,0-33.63,0c-4.75,0-6.85-2.11-6.89-6.81C610.28,1002.41,610.32,996.68,610.32,991Z" transform="translate(-409.53 -655.94)"/>
    <path class="cls-1" d="M633.9,951.63c-5.73,0-11.46.07-17.18,0-4.51-.07-6.37-1.93-6.39-6.38q-.06-17.36,0-34.72c0-4.44,1.92-6.32,6.4-6.34q17.35-.06,34.72,0c4.47,0,6.39,1.81,6.43,6.35q.15,17.37,0,34.72c0,4.51-1.94,6.3-6.45,6.37C645.59,951.7,639.74,951.64,633.9,951.63Z" transform="translate(-409.53 -655.94)"/>
    <path class="cls-1" d="M718.75,990.64c4.36,4.31,8.56,8.38,12.68,12.54,3.05,3.09,3.26,6.32.72,8.82s-5.76,2.27-8.87-.75c-3.57-3.48-7.16-6.94-10.53-10.61-1.63-1.76-2.55-1.58-4.09.07-3.4,3.64-7,7.11-10.55,10.59-3.06,3-6.38,3.17-8.87.66s-2.34-5.63.78-8.82c3.57-3.65,7.16-7.29,10.86-10.81,1.35-1.28,1.55-2.06.08-3.45-3.72-3.51-7.29-7.17-10.86-10.81-3.18-3.24-3.45-6.17-.94-8.82s5.74-2.53,9.09.76c3.55,3.49,7.13,7,10.55,10.59,1.42,1.5,2.29,1.65,3.82.09,3.66-3.73,7.47-7.33,11.34-10.85,3.36-3.06,7.93-2.15,9.52,1.78,1,2.38.16,4.28-1.63,6C727.48,981.87,723.2,986.21,718.75,990.64Z" transform="translate(-409.53 -655.94)"/>
    <path class="cls-1" d="M702,886.15a6.81,6.81,0,0,1-4.34-2.08c-4.38-4.42-8.84-8.77-13.18-13.23-2.88-3-3-6-.4-8.53s5.82-2.26,8.57.52a97.59,97.59,0,0,1,6.85,7.39c1.55,1.91,2.42,1.53,4,0,8.2-8.35,16.53-16.57,24.78-24.88a9,9,0,0,1,5.75-3.1,5.52,5.52,0,0,1,5.61,2.93,5.26,5.26,0,0,1-.44,6,8.77,8.77,0,0,1-1,1.14q-15.84,15.85-31.68,31.7A7,7,0,0,1,702,886.15Z" transform="translate(-409.53 -655.94)"/>
    <path class="cls-1" d="M740.35,911.1a7.44,7.44,0,0,1-2.4,4.65q-15.62,15.6-31.23,31.19c-3.3,3.28-6.06,3.27-9.35,0q-6.42-6.29-12.7-12.69c-3.07-3.13-3.19-6.28-.51-8.82s5.67-2.22,8.8,1c2.26,2.32,4.57,4.61,6.66,7.08,1.4,1.68,2.25,1.55,3.75,0,8.39-8.54,16.88-17,25.37-25.41,3.19-3.18,7.47-3.54,10-1A6.2,6.2,0,0,1,740.35,911.1Z" transform="translate(-409.53 -655.94)"/>
    <path class="cls-2" d="M489,866.66c0,8.86-.08,17.71.05,26.56,0,2.46-.41,3.45-3.19,3.43-16-.14-31.92-.11-47.89,0-2.22,0-3.33-.47-3-2.86a6.17,6.17,0,0,0,0-1.87c-.56-4,.23-6.51,4.95-7.92,6.28-1.87,9.69-8.45,9.47-15.44a16.16,16.16,0,0,0-11.27-15.16c-2.79-.85-3.23-2.18-3.18-4.69.14-7,.12-14,0-20.94,0-2.14.63-2.73,2.75-2.72,12.46.09,24.93.05,37.4.05a7,7,0,0,1,1.12,0c2.81.47,12.75,12.16,12.75,15Q489,853.39,489,866.66Z" transform="translate(-409.53 -655.94)"/>
    <path class="cls-2" d="M601.62,799c5.26-8.92,9.87-17.16,14.92-25.11a13.54,13.54,0,0,0,1.7-11.59c-5.87-22.91-2-44.2,11.51-63.6,17.26-24.78,48.71-36.67,79-30.1,28.49,6.16,52,30.74,57.26,59.93,7.3,40.24-15.74,78.36-54.18,88.46-26.53,7-50.66,1.37-71.21-17-4.14-3.71-8-4.63-13.1-3.88C619.18,797.29,610.75,798,601.62,799Z" transform="translate(-409.53 -655.94)"/>
    <path class="cls-1" d="M745,718.51a6.83,6.83,0,0,1-2.27,4.43Q709.92,756,677.12,789.07c-3.25,3.27-6.12,3.28-9.36,0Q650.12,771.58,632.57,754c-3.44-3.45-3.44-6.18,0-9.64q7.61-7.74,15.35-15.34c3.41-3.36,6.19-3.35,9.67,0,4.19,4.1,8.41,8.17,12.39,12.47,1.86,2,2.88,2.13,4.9.07,13.83-14,27.81-27.92,41.74-41.85,4.66-4.66,6.79-4.66,11.5,0,4.94,4.93,9.86,9.89,14.81,14.81A5.56,5.56,0,0,1,745,718.51Z" transform="translate(-409.53 -655.94)"/>
  </g>
</svg>
