<svg id="Layer_1" data-name="Layer 1" xmlns="http://www.w3.org/2000/svg" viewBox="0 0 381.73 381.64">
  <defs>
    <style>
      .cls-1 {
        fill: #0a2f4f;
      }

      .cls-2 {
        fill: #f49d19;
      }

      .cls-3 {
        fill: #f29d1b;
      }

      .cls-4 {
        fill: #fafbfc;
      }

      .cls-5 {
        fill: #f29c1b;
      }

      .cls-6 {
        fill: #0a304f;
      }

      .cls-7 {
        fill: #fafafc;
      }

      .cls-8 {
        fill: #f29b1b;
      }

      .cls-9 {
        fill: #c1c6ce;
      }

      .cls-10 {
        fill: #0d3050;
      }

      .cls-11 {
        fill: #3d4f66;
      }

      .cls-12 {
        fill: #818b9a;
      }

      .cls-13 {
        fill: #112d49;
      }

      .cls-14 {
        fill: #f29e1b;
      }

      .cls-15 {
        fill: #3d4e66;
      }

      .cls-16 {
        fill: #18253e;
      }

      .cls-17 {
        fill: #0e2f4f;
      }

      .cls-18 {
        fill: #19273e;
      }

      .cls-19 {
        fill: #f19c1b;
      }

      .cls-20 {
        fill: #19253f;
      }

      .cls-21 {
        fill: #f19f21;
      }

      .cls-22 {
        fill: #19253e;
      }

      .cls-23 {
        fill: #112c49;
      }

      .cls-24 {
        fill: #fafefe;
      }

      .cls-25 {
        fill: #fff;
      }

      .cls-26 {
        fill: #fefefd;
      }

      .cls-27 {
        fill: #3d5166;
      }

      .cls-28 {
        fill: #f19b1b;
      }

      .cls-29 {
        fill: #f2a01b;
      }

      .cls-30 {
        fill: #f29d1c;
      }

      .cls-31 {
        fill: #fefefe;
      }
    </style>
  </defs>
  <g>
    <path class="cls-1" d="M754.92,777.75c2.44,4.72,3.8,9.82,5.13,14.92-1.37,1.72-1.37,1.73-3.91.43-6.77-3.46-13.23-7.49-19.81-11.28-38.55-22.18-77-44.53-115.58-66.67-6.15-3.53-12.21-7.23-18.5-10.55a3,3,0,0,1-1.56-1.53,33.78,33.78,0,0,1-.05-11.26c1.46-2.47,3.19-1.11,4.76-.23,8,4.5,16,9.16,24,13.77q52.08,30.07,104.19,60.12C740.67,769.57,747.75,773.74,754.92,777.75Z" transform="translate(-403.77 -650.62)"/>
    <path class="cls-2" d="M429.2,890.17a62.86,62.86,0,0,1-3.71-15c1.4-1,1.42-1,3.1-.28,4.1,1.84,7.81,4.38,11.69,6.62q44.33,25.54,88.61,51.16c19,10.94,37.91,22,57,32.79,1.08.61,2.27,1.08,2.75,2.38a30.52,30.52,0,0,1,0,10.53c-1.65,2.52-3.49,1.07-5.14.11q-13.9-8-27.83-16.05c-29-16.71-58-33.54-87-50.21-11.67-6.69-23.29-13.46-35-20.15A14,14,0,0,0,429.2,890.17Z" transform="translate(-403.77 -650.62)"/>
    <path class="cls-2" d="M429.2,890.17c1.29-1.68,2.5-.42,3.57.2q35.46,20.45,70.87,41c25.33,14.66,50.63,29.38,76,43.91,2.61,1.5,4.93,3.94,8.33,3.85,1.84,3.83,1,7.82.67,11.77-1.19,2.49-2.95,1.21-4.4.49-4.23-2.12-8.28-4.59-12.37-7-39.09-22.72-78.35-45.14-117.44-67.87q-10-5.82-20.14-11.43A65.08,65.08,0,0,1,429.2,890.17Z" transform="translate(-403.77 -650.62)"/>
    <path class="cls-1" d="M601.26,703.74c5.4,1,9.57,4.6,14.17,7.19,17.32,9.75,34.46,19.82,51.66,29.79,14.95,8.66,29.86,17.37,44.82,26,15.18,8.76,30.4,17.44,45.59,26.18,1,.56,1.79.89,2.55-.23,2.11,4.79,2.72,10,3.71,15-1.55,1.1-1.6,1.18-4.1-.24-5.85-3.31-11.71-6.64-17.53-10q-55-31.83-110.06-63.54c-9.73-5.58-19.33-11.38-29.15-16.78a4.09,4.09,0,0,1-2.32-2.31C600.3,711.09,599.42,707.33,601.26,703.74Z" transform="translate(-403.77 -650.62)"/>
    <path class="cls-2" d="M608.09,1026c-2.9,2.36-5.58,5.1-9.58,5.56a3.64,3.64,0,0,1-3.84-.35c-5.16-4.06-11.24-6.6-16.75-10.08-.18-.31-.52-.63-.51-.94.17-6.53-4-7.4-9.36-8.22a169,169,0,0,1-84-37.91,152.77,152.77,0,0,1-28.67-30.71c1.52-2,2.09-2,5-.41,6.51,3.67,12.94,7.46,19.4,11.2,34.25,19.84,68.61,39.49,102.79,59.44,2,1.19,4.27,2,6.31,3.25,2.69,2.86,6,2.68,9.46,2,3.43.75,6,3,8.94,4.79C608.08,1024,608.87,1024.8,608.09,1026Z" transform="translate(-403.77 -650.62)"/>
    <path class="cls-1" d="M601.26,715.71c5.56,1.64,10.13,5.18,15.07,8,15.64,8.9,31.17,18,46.74,27L703.36,774l41.92,24.17c4.4,2.54,8.76,5.17,13.22,7.62,1.62.89,3.08,2.47,5.26,1.94,1.8,4.59,1.31,9.54,2.22,14.27-1.92,1.18-3.36-.28-4.78-1.05-10.71-5.84-21.18-12.12-31.75-18.2q-23.15-13.32-46.26-26.7a40.06,40.06,0,0,0-5.74-2.7,7.68,7.68,0,0,1-2.63-2.06,105.31,105.31,0,0,0-51.64-32.66,11.37,11.37,0,0,1-3.47-1.34c-4.51-4.6-10.34-7.18-15.85-10.23-1.17-.65-2.64-.85-3.2-2.34C600.23,721.65,599.58,718.6,601.26,715.71Z" transform="translate(-403.77 -650.62)"/>
    <path class="cls-1" d="M677.59,772.6c6.14,1.88,11.26,5.72,16.75,8.85,14,8,28,16.11,42,24.17q12.93,7.44,25.89,14.8A30.38,30.38,0,0,0,766,822c.86,1.4,2.33,1.18,3.65,1.38,7.26,1.11,12.29,5.17,14.69,12s1.1,13.39-4.27,18.73c-3.55.32-9.07-3.1-10.73-6.64a3.37,3.37,0,0,1,1.08-1.86c3.47-4.23,2.42-7.81-2.74-9.47-1.29-.42-2.67-.46-3.93-1-12.25-7.59-24.87-14.54-37.31-21.8-10.3-6-20.66-11.9-31-17.91a19.76,19.76,0,0,0-4.38-2,5.54,5.54,0,0,1-2.53-2.62,145.84,145.84,0,0,0-9.89-15.19C678,774.75,677.26,773.85,677.59,772.6Z" transform="translate(-403.77 -650.62)"/>
    <path class="cls-3" d="M423.28,860.87c-.86-1.41-2.34-1.18-3.66-1.38-7.11-1.1-12.05-5-14.55-11.72s-1.43-12.88,3.42-18.28c4,1.25,8,2.57,10,6.83-2.91,7.65-1.88,9.43,6.36,11a5.46,5.46,0,0,1,1.42.45c7.6,5.45,16,9.61,24,14.34,13.3,7.84,26.77,15.38,40.07,23.21a86.68,86.68,0,0,0,8,4.08c2.89,2.06,3.7,5.55,5.67,8.25s3.72,5.61,5.69,8.34c.79,1.08,1.82,2.14,1.15,3.7-2,1.11-3.62-.19-5.18-1.1-25.59-14.94-51.38-29.55-77-44.53C426.9,863,424.71,862.56,423.28,860.87Z" transform="translate(-403.77 -650.62)"/>
    <path class="cls-2" d="M588.56,1017.25c-7.87-2.9-14.62-7.87-21.86-11.93-14.06-7.9-28-16.05-42-24.12q-19.81-11.46-39.61-23-13-7.56-26.09-15.11c-1.19-.68-2.51-1.32-3.66.17a86.83,86.83,0,0,1-10.7-16.5c1.77-1.59,3.27-.31,4.72.53,19.56,11.2,39,22.56,58.56,33.77,26,14.92,51.81,30.27,78,44.83a4.77,4.77,0,0,1,2.51,2.13C588.88,1011.12,589.69,1014.18,588.56,1017.25Z" transform="translate(-403.77 -650.62)"/>
    <path class="cls-4" d="M759.07,893.76a97.66,97.66,0,0,1-7.31,18.73c-4.08-1.57-7.67-4.07-11.43-6.22-14.58-8.34-29-16.92-43.7-25.1a2.87,2.87,0,0,1-1.65-1.91c1.4-6.32,2.83-12.63,5.31-18.65,1.72-.82,3.18.09,4.55.87,17.36,9.89,34.71,19.82,51.92,30A4.46,4.46,0,0,1,759.07,893.76Z" transform="translate(-403.77 -650.62)"/>
    <path class="cls-5" d="M430.05,789.79A99.13,99.13,0,0,1,437,771.14c1.35-.43,2.42.28,3.49.89,16.82,9.65,33.58,19.41,50.4,29.06,1.16.67,2.51,1.16,3.2,2.48-.39,5.32-2.86,10.14-3.73,15.35-.19,1.2-.34,2.47-1.4,3.33-1.67.87-3.15.18-4.57-.64q-26.49-15.3-53-30.55A4.07,4.07,0,0,1,430.05,789.79Z" transform="translate(-403.77 -650.62)"/>
    <path class="cls-2" d="M685.87,987.87c-3.42,2.13-6.69,4.51-10.46,6q-16.81-9.69-33.62-19.39c-13.56-7.86-27.23-15.54-40.68-23.6-4.31-9.42-6.57-7.46-12.5-4.08-4.29-.13-7.19-3.14-10.61-5.09-.26-3.14,1.79-5,3.86-6.79,10.44-8.93,26.21-4.84,30.65,7.61.94,2.62,2.38,3.83,5.08,3.63,21.54,13,43.51,25.2,65.23,37.87C684.28,984.92,686,985.69,685.87,987.87Z" transform="translate(-403.77 -650.62)"/>
    <path class="cls-6" d="M503.39,695a64.45,64.45,0,0,1,10.43-6l44.93,25.94c9.8,5.66,19.63,11.27,29.38,17,3.75,7.91,4.8,8.27,12.46,4.28A28.6,28.6,0,0,1,610.68,742c.47,2.8-1.5,4.32-3.26,5.82-10.48,9-26.24,4.83-30.67-7.57-.93-2.61-2.35-3.87-5.07-3.65-21.4-12.71-43.09-24.93-64.58-37.47C505.44,698.2,503.37,697.48,503.39,695Z" transform="translate(-403.77 -650.62)"/>
    <path class="cls-2" d="M733.83,943.24a84,84,0,0,1-12,14.65c-7.72-3.53-14.77-8.28-22.12-12.47-10.83-6.16-21.68-12.29-32.37-18.7-1.27-.76-2.67-1.38-3.34-2.87,0-.24-.13-.57,0-.71,4.6-4.49,8.54-9.65,13.77-13.49,2.57-.08,4.36,1.68,6.35,2.84,15.45,9,31,17.7,46.39,26.85C732,940.23,734.16,940.73,733.83,943.24Z" transform="translate(-403.77 -650.62)"/>
    <path class="cls-7" d="M456.11,738.66a78.59,78.59,0,0,1,10.77-13.22c1.77-1.07,3.14.22,4.44,1,17.12,9.86,34.31,19.61,51.32,29.68,1.17.68,2.47,1.27,2.81,2.8a1.74,1.74,0,0,1-.36,1.38,136.24,136.24,0,0,0-11.87,12,2.14,2.14,0,0,1-1.69.59c-5.44-2.21-10.21-5.61-15.28-8.48q-18.79-10.67-37.43-21.63C457.32,741.9,455.15,741.25,456.11,738.66Z" transform="translate(-403.77 -650.62)"/>
    <path class="cls-8" d="M456.11,738.66c.84,3.49,4.26,3.9,6.67,5.33,16.21,9.6,32.52,19,48.79,28.5A43.18,43.18,0,0,1,501.1,788c-5.18-1.88-9.66-5.09-14.39-7.8-13-7.41-25.87-15-38.85-22.36a6.43,6.43,0,0,1-2.77-2.42A92,92,0,0,1,456.11,738.66Z" transform="translate(-403.77 -650.62)"/>
    <path class="cls-3" d="M445.09,755.37c8,4.5,16,9,23.93,13.52,10.75,6.18,21.45,12.45,32.17,18.68a35.77,35.77,0,0,1-7.52,15.7c-6.59-2.66-12.43-6.72-18.59-10.16-12.79-7.14-25.4-14.63-38.08-22A94.24,94.24,0,0,1,445.09,755.37Z" transform="translate(-403.77 -650.62)"/>
    <path class="cls-2" d="M733.83,943.24c-2.19-3.27-5.93-4.43-9.06-6.28-14.95-8.83-30-17.41-45.1-26.05a11.25,11.25,0,0,0-2.1-.7c.6-4,3.87-6.38,5.79-9.58,1.27-2.12,2.15-4.75,4.84-5.75,5.47,1.85,10,5.38,15,8.16,12.57,7,24.93,14.45,37.44,21.6,1.44.82,3.29,1.43,3,3.71A80.66,80.66,0,0,1,733.83,943.24Z" transform="translate(-403.77 -650.62)"/>
    <path class="cls-1" d="M734.64,741.11c3.42,4.17,6.06,8.85,9,13.36-1.36,1.6-1.38,1.62-3.9.2-6.41-3.61-12.74-7.34-19.11-11q-55.17-31.89-110.38-63.72a102.24,102.24,0,0,1-9.28-5.53,60.12,60.12,0,0,1-1.46-9.15c2.33-1.55,4,.45,5.62,1.35,8.06,4.46,16,9.12,24,13.74q47.83,27.75,95.77,55.33C728.09,737.54,731.3,739.44,734.64,741.11Z" transform="translate(-403.77 -650.62)"/>
    <path class="cls-2" d="M743.6,928.35c-2.05-3.27-5.77-4.15-8.79-5.93-15.55-9.17-31.21-18.15-46.83-27.19a1.46,1.46,0,0,1-.21-1.41c2.5-4.56,4.28-9.47,6.83-14a1,1,0,0,1,1-.35q26.22,15,52.42,30.08c1.36.78,2.94,1.4,3.74,2.94A78.76,78.76,0,0,1,743.6,928.35Z" transform="translate(-403.77 -650.62)"/>
    <path class="cls-9" d="M759.07,893.76c-15.67-9.08-31.29-18.23-47-27.18-3.64-2.07-7-4.73-11.22-5.73-7.81-1.57-13.85-5.45-16.44-13.32-1.18-3.59-2.09-7.41.38-11,5.08-.31,8.46,3,12.07,5.76,1.51,3.48,4.8,4.38,8,5.43,7.6,5.71,16.24,9.71,24.34,14.59,11,6.63,22.36,12.56,33.15,19.51C761.93,886,760.15,889.79,759.07,893.76Z" transform="translate(-403.77 -650.62)"/>
    <path class="cls-1" d="M754.92,777.75c-3.82.17-6.4-2.58-9.34-4.25-18.54-10.57-36.94-21.38-55.42-32q-28-16.19-56.17-32.27-14.85-8.53-29.63-17.17a5.2,5.2,0,0,0-3.1-1c-1.39-1.93-1-4-.55-6.1,1.6-2.34,3.29-.87,4.83,0q20.24,11.63,40.46,23.32,49.8,28.83,99.71,57.46a19.64,19.64,0,0,1,6.74,6.11Q753.7,774.77,754.92,777.75Z" transform="translate(-403.77 -650.62)"/>
    <path class="cls-2" d="M588,967.12c-5.41-1.41-9.7-5-14.42-7.64-15.68-8.82-31.17-18-46.74-27Q489,910.56,451.15,888.66,440,882.23,428.78,876c-.93-.52-1.87-1.83-3.29-.87-1-2.15-1-4.48-1.32-6.76,2-.74,3.63.25,5.26,1.18,28.73,16.52,57.35,33.23,86.13,49.66,3.3,1.88,6.34,4.46,10.37,4.83a8.6,8.6,0,0,1,3.58,1.86c7.14,5.12,14.4,10.05,22.6,13.38a7.51,7.51,0,0,1,2.75,1.85c4.78,4.3,10.65,6.86,16.1,10.07s10.83,6.65,16.58,9.38a2.15,2.15,0,0,1,1,1.1C589,963.57,589.29,965.42,588,967.12Z" transform="translate(-403.77 -650.62)"/>
    <path class="cls-2" d="M438.78,915.57c-1.85-2.81-2.81-6-4.15-9.06,2-1.1,3.33.45,4.73,1.24,24.36,13.81,48.57,27.88,72.82,41.86q34.61,20,69.16,40c2.35,1.36,5,2.22,7.08,4a9.06,9.06,0,0,1,.06,5.84c-2,1.94-3.7.19-5.28-.72-13.84-7.92-27.63-15.92-41.44-23.89q-49.38-28.47-98.71-57C441.65,917.08,440.11,916.51,438.78,915.57Z" transform="translate(-403.77 -650.62)"/>
    <path class="cls-1" d="M588,732.17c-6.77-2.53-12.65-6.74-18.87-10.27q-23.75-13.5-47.3-27.3c-2.81-1.64-6.19-2.59-8-5.67a77.15,77.15,0,0,1,12.72-6c11.11,7.83,23.32,13.83,35,20.79q12.35,7.38,24.9,14.38a4.09,4.09,0,0,1,2.29,2.34C588.93,724.35,589.85,728.34,588,732.17Z" transform="translate(-403.77 -650.62)"/>
    <path class="cls-2" d="M601.26,950.66c6.59,2.38,12.23,6.55,18.27,9.93,15.82,8.86,31.46,18,47.07,27.26,3,1.8,6.75,2.78,8.81,6-4.12,2.25-8.2,4.58-12.69,6.05-7.4-5.78-15.88-9.79-23.92-14.5-11.93-7-23.86-14-35.93-20.68a4,4,0,0,1-2.29-2.33C600.32,958.48,599.41,954.49,601.26,950.66Z" transform="translate(-403.77 -650.62)"/>
    <path class="cls-1" d="M752.45,771.82c-11.41-8.91-24.6-14.91-36.92-22.31-13.72-8.25-27.69-16.06-41.55-24.06s-27.73-16-41.58-24c-9.67-5.59-19.3-11.23-29-16.8a6.69,6.69,0,0,0-2.16-.39c-1.28-1.69-1-3.53-.52-5.39,1.73-2.2,3.42-.58,4.88.26q13.13,7.51,26.22,15.09,51.9,30,103.85,59.9c3.54,2,6.71,4.81,10.87,5.62A56.85,56.85,0,0,1,752.45,771.82Z" transform="translate(-403.77 -650.62)"/>
    <path class="cls-2" d="M685.87,987.87c-3.78-4.37-9.25-6.17-14-9-16.69-9.83-33.57-19.36-50.35-29.06a33.34,33.34,0,0,1-3.79-3,1.13,1.13,0,0,1,.68-1.18c4.63-1.43,9.14-3.35,14-3.77,17.94,11.12,36.51,21.18,54.71,31.87,2.35,1.39,4.78,2.66,7,4.25,1,.73,2.56,1.44,1.48,3.22A55.93,55.93,0,0,1,685.87,987.87Z" transform="translate(-403.77 -650.62)"/>
    <path class="cls-10" d="M503.39,695c3.36,4.09,8.34,5.77,12.68,8.32,17.55,10.32,35.23,20.42,52.85,30.63a24.16,24.16,0,0,1,2.62,2,1.31,1.31,0,0,1-1,1.39c-4.56,1.19-8.95,3-13.65,3.63-19.57-12.07-39.76-23.09-59.54-34.81-1.67-1-4.53-1.43-3.69-4.6A57,57,0,0,1,503.39,695Z" transform="translate(-403.77 -650.62)"/>
    <path class="cls-2" d="M695.62,981.26c-1.59-3.64-5.37-4.52-8.33-6.26-17.5-10.3-35.12-20.39-52.7-30.54-.86-.49-1.83-.87-1.82-2.1,3.14-3.56,7.5-4.55,11.82-5.63,19.3,11.19,38.72,22.17,57.91,33.54,1.32.78,3.09,1.34,2.82,3.47A55.59,55.59,0,0,1,695.62,981.26Z" transform="translate(-403.77 -650.62)"/>
    <path class="cls-11" d="M493.64,701.56c1.16,3.55,4.74,4.2,7.37,5.75,16.68,9.82,33.53,19.37,50.31,29,1.91,1.11,4.06,2,5.16,4.11C553.36,744,549,745,544.67,746.1c-19.29-11.23-38.72-22.21-57.94-33.56-1.32-.77-3.08-1.34-2.8-3.47A59.38,59.38,0,0,1,493.64,701.56Z" transform="translate(-403.77 -650.62)"/>
    <path class="cls-9" d="M525,759.11c-4.37-3.93-9.77-6.24-14.75-9.19-12.6-7.45-25.31-14.72-38-22-1.71-1-3.6-1.65-5.4-2.47a65,65,0,0,1,8.76-9c7.67,3.62,14.75,8.3,22.1,12.48q16.23,9.26,32.39,18.67c1.81,1.06,3.81,1.92,4.86,3.94C532.79,755.49,529.19,757.66,525,759.11Z" transform="translate(-403.77 -650.62)"/>
    <path class="cls-2" d="M705.32,973.74c-2.9-3.38-7.05-4.94-10.74-7.1-15.5-9-31.13-17.87-46.66-26.86-1.21-.7-2.78-1.24-3.25-2.88,2.38-3.52,6.05-5,9.88-6.28,7,3.67,13.8,7.84,20.68,11.8,11.62,6.68,23.26,13.34,34.83,20.11,1.48.87,3.63,1.35,3.52,3.8A46.92,46.92,0,0,1,705.32,973.74Z" transform="translate(-403.77 -650.62)"/>
    <path class="cls-12" d="M534.88,751.67c-13.25-7.75-26.54-15.42-39.72-23.26-6.56-3.9-13.63-7-19.52-12a58.44,58.44,0,0,1,8.29-7.35c2.9,3.39,7.05,4.95,10.74,7.11,15.5,9,31.12,17.87,46.65,26.85,1.22.71,2.78,1.25,3.27,2.88A13.46,13.46,0,0,1,534.88,751.67Z" transform="translate(-403.77 -650.62)"/>
    <path class="cls-2" d="M601.26,963.38c5.61,1.54,10.08,5.24,15,8,14.26,8,28.34,16.28,42.5,24.44,1.73,1,3.54,1.87,3.93,4.13a83.22,83.22,0,0,1-13.44,5.17c-3.16-3.54-7.58-5.18-11.52-7.49-11.49-6.73-23.06-13.33-34.6-20-1.08-.62-2.22-1.17-2.59-2.53C600.34,971.17,599.41,967.19,601.26,963.38Z" transform="translate(-403.77 -650.62)"/>
    <path class="cls-1" d="M588,719.45c-6.85-2.65-12.84-6.88-19.16-10.48q-18.39-10.49-36.66-21.16c-2.15-1.25-5-1.91-5.64-4.93a74.93,74.93,0,0,1,12.6-4.87c14.67,8.56,29.46,16.92,44.09,25.55,1.94,1.15,4.64,1.42,5.47,4.11C588.9,711.63,589.85,715.62,588,719.45Z" transform="translate(-403.77 -650.62)"/>
    <path class="cls-13" d="M619.31,670.78a97.71,97.71,0,0,1,24.13,5.2c0,2,1.83,2.53,3.16,3.28,20.89,11.91,41.64,24,62.47,36,1.74,1,3.6,1.7,5.38,2.6a95.2,95.2,0,0,1,15,16.47c-1.66,1.17-2.82-.23-4-.88-17.24-9.2-33.93-19.36-50.89-29s-34-19.68-51.07-29.5C621.75,674,619.28,673.54,619.31,670.78Z" transform="translate(-403.77 -650.62)"/>
    <path class="cls-2" d="M525.83,924.35c-1.09,1.57-2.26.55-3.25,0Q491.74,906.54,461,888.69c-10.87-6.27-21.8-12.44-32.63-18.78-1.35-.8-2.95-.55-4.15-1.53a18.24,18.24,0,0,1-.89-7.51c7.25,2.15,13.19,6.82,19.66,10.44,15.39,8.61,30.57,17.58,45.84,26.42,5.59,3.23,11.15,6.52,16.74,9.75,1.7,1,3.34,2.24,5.51,1.95,1.61-.1,2.49,1.07,3.3,2.12a52.84,52.84,0,0,0,9.48,9.48C524.85,921.83,526.06,922.7,525.83,924.35Z" transform="translate(-403.77 -650.62)"/>
    <path class="cls-13" d="M619.31,670.78c4.1,4.13,9.55,6.16,14.43,9q37.92,22.22,76.06,44c6.44,3.69,12.73,7.69,19.63,10.54,2.52,1.63,3.44,4.51,5.21,6.73-4.77-.15-8.1-3.49-11.91-5.63-14.38-8.1-28.62-16.45-42.92-24.7L640.45,688.1c-13.53-7.81-26.87-16-40.7-23.23-2.94-.67-5.82-1.87-8.9-.71-4.24-.85-7.55-3.34-10.67-6.14,1.6-3.24,4.42-4.87,7.72-5.88,7.1,4.5,14.49,8.5,21.71,12.78a11.84,11.84,0,0,1,3,2.15C613.14,671.39,616.71,670.22,619.31,670.78Z" transform="translate(-403.77 -650.62)"/>
    <path class="cls-12" d="M762.29,881.83c-3.52-.32-6-2.85-8.82-4.47-15.41-8.69-30.75-17.54-46.09-26.36a6.45,6.45,0,0,1-2.76-2.94,4.13,4.13,0,0,1,3.08-1c6.28,0,12.56-.35,18.83.2,10.92,6.57,22.07,12.76,33,19.28a11.1,11.1,0,0,0,5.53,1.86A64.32,64.32,0,0,1,762.29,881.83Z" transform="translate(-403.77 -650.62)"/>
    <path class="cls-3" d="M424.79,811.49c0-3.64,1.19-7.07,2-10.56,1.53-1.07,2.83-.22,4.13.53q25.32,14.58,50.58,29.25c1.42.84,4.89,1.54,2.22,4.69a107.55,107.55,0,0,1-19,.14C452.15,827.43,439,820.28,426,812.85A2.74,2.74,0,0,1,424.79,811.49Z" transform="translate(-403.77 -650.62)"/>
    <path class="cls-14" d="M484.64,834.77c-1.69-3.47-5.4-4.3-8.31-6-15.4-9.06-30.95-17.87-46.41-26.83a6.38,6.38,0,0,0-3.12-1,22.21,22.21,0,0,1,1.83-6.65c1.65-1.08,2.83.2,4.05.9q33.3,19.14,66.52,38.43c1.93,1.12,4.08,1.85,5.83,3.29a10.31,10.31,0,0,1-.1,9.05c-3.53,1.37-5.86-1.26-8.38-2.79a3.12,3.12,0,0,0-3.74-.14C491.89,838.48,488.66,836.23,484.64,834.77Z" transform="translate(-403.77 -650.62)"/>
    <path class="cls-1" d="M746.56,759.76c-1.49,1.77-2.79.24-3.92-.41-13-7.47-26-15-39-22.56q-20.94-12.1-41.92-24.18c-13.76-7.94-27.46-16-41.29-23.78-6.35-3.58-12.27-8-19.19-10.53a2.82,2.82,0,0,1,0-3.75c4.81.54,8.22,4,12.15,6.16,15.71,8.79,31.19,18,46.76,27q37.85,21.93,75.71,43.84c1.72,1,3.42,2,5.18,2.94.79.41,1.7,1.36,2.54,0C745.11,756,745.57,758,746.56,759.76Z" transform="translate(-403.77 -650.62)"/>
    <path class="cls-15" d="M765.08,868.38c-.81,1.25-1.74,1.41-3.07.64q-16.66-9.75-33.37-19.4a1.75,1.75,0,0,1-.82-1.56c1.21-1.13,2.75-1.06,4.23-1.09,11.84-.2,23.68.3,35.52-.28a3,3,0,0,1,2.11.59c2.46,3.79,6.65,4.94,10.37,6.81a14.33,14.33,0,0,1-10.16,5.28c-3,.23-4.09,1.4-4,4.3A25,25,0,0,1,765.08,868.38Z" transform="translate(-403.77 -650.62)"/>
    <path class="cls-2" d="M601.26,976.1c4.74,1.31,8.56,4.39,12.74,6.75,11.1,6.27,22.1,12.73,33.11,19.14,1.16.68,3.11.94,2.17,3.13a73,73,0,0,1-13.51,3.83c-9.68-6-19.73-11.3-29.42-17.24-1.94-1.19-4.6-1.36-5.74-3.79C600.29,984,599.41,980,601.26,976.1Z" transform="translate(-403.77 -650.62)"/>
    <path class="cls-1" d="M588,706.73c-9.76-4.38-18.61-10.39-27.92-15.55-6-3.31-11.82-6.83-17.75-10.2-1.32-.75-2.61-1.45-3.19-3a80.88,80.88,0,0,1,13.62-4c10.27,5,19.93,11.16,29.79,16.92,2.08,1.21,4.85,1.47,6.1,4C589,698.88,589.85,702.88,588,706.73Z" transform="translate(-403.77 -650.62)"/>
    <path class="cls-2" d="M438.78,915.57c3.84-.22,6.42,2.55,9.36,4.22,18.55,10.57,37,21.39,55.46,32.07,18.71,10.8,37.48,21.51,56.21,32.28,8.07,4.65,16.15,9.28,24.15,14.05,1.31.77,2.73,1.17,4,1.85a2.45,2.45,0,0,1,.31,2.77c-1.74,1.77-3.24.34-4.67-.47-13.73-7.84-27.4-15.8-41.1-23.7-28.82-16.59-57.55-33.32-86.42-49.81-3.46-2-6.82-4.13-10.34-6a9.24,9.24,0,0,0-3.86-1.22A25.64,25.64,0,0,1,438.78,915.57Z" transform="translate(-403.77 -650.62)"/>
    <path class="cls-2" d="M588,1007.52c-7.92-2.81-14.71-7.74-21.93-11.83-14.06-8-28-16.11-42-24.18q-20.66-11.93-41.32-23.87-17.43-10.08-34.83-20.2a4.74,4.74,0,0,0-3.23-.64,6.27,6.27,0,0,1-2-3.68c.44-2.6,1.88-1,2.86-.6,4.77,2.17,9.11,5.12,13.64,7.71q21.36,12.21,42.64,24.59,22.41,13,44.87,25.95c13.7,7.85,27.14,16.15,41.17,23.4a1.5,1.5,0,0,1,.49.56A2.51,2.51,0,0,1,588,1007.52Z" transform="translate(-403.77 -650.62)"/>
    <path class="cls-16" d="M714.45,717.91a7.39,7.39,0,0,1-5-1.27q-27.64-16-55.3-32.09c-3.64-2.11-7.33-4.16-11-6.29-1.36-.8-2.12-1.72.2-2.28,20.24,6.09,39.16,14.91,55.76,28.11C704.54,708.34,710.18,712.42,714.45,717.91Z" transform="translate(-403.77 -650.62)"/>
    <path class="cls-14" d="M504.17,836.9c-5-1.41-9-4.6-13.38-7.11-20.18-11.56-40.28-23.28-60.41-34.93a9,9,0,0,0-1.75-.58,11.81,11.81,0,0,1,1.42-4.49c7.25,2.7,13.48,7.31,20.17,11,11.8,6.56,23.37,13.53,35,20.33a5.56,5.56,0,0,0,3.2.84c2.88,1,5.85,1.66,8.54,3.23,3.47,2,5.59,5.09,7.23,8.59C504.69,834.8,505.07,835.89,504.17,836.9Z" transform="translate(-403.77 -650.62)"/>
    <path class="cls-2" d="M415.67,1015a7.76,7.76,0,0,1,.11,1.85c-.48,2.82.67,3.85,3.44,3.42a13.33,13.33,0,0,1,2.59.1c4.83,2.79,9.74,5.46,14.49,8.39,1.18.73,2.85,1.32,1.94,3.33-9.29,0-18.58.14-27.87.09-4.18,0-6.46-2.29-6.51-6.44-.07-5.32.05-10.65.09-16a2.42,2.42,0,0,1,3.08-.29C410,1011.18,413.34,1012.31,415.67,1015Z" transform="translate(-403.77 -650.62)"/>
    <path class="cls-17" d="M773.58,667.82a8.22,8.22,0,0,1-.1-1.84c.47-2.8-.65-3.86-3.42-3.42a13.27,13.27,0,0,1-2.59-.1c-4.89-2.7-9.66-5.62-14.5-8.41-1.21-.7-2.86-1.3-2-3.31,9.29,0,18.58-.14,27.87-.1,4.18,0,6.46,2.29,6.52,6.44.07,5.32,0,10.65-.09,16-1.11.9-2.15.24-3.1-.25A74.07,74.07,0,0,1,773.58,667.82Z" transform="translate(-403.77 -650.62)"/>
    <path class="cls-2" d="M664.15,923.7q18,10.47,36,20.95c7,4,14,8,20.95,12,.36.21.51.79.76,1.2l-3.88,4c-2.18.2-3.75-1.24-5.42-2.2q-24.25-14-48.5-28c-1.76-1-4-1.61-4.71-4A5.08,5.08,0,0,1,664.15,923.7Z" transform="translate(-403.77 -650.62)"/>
    <path class="cls-3" d="M424.79,811.49c9.68,4.48,18.54,10.42,27.85,15.56,2.71,1.5,5.33,3.16,8.07,4.6a5.35,5.35,0,0,1,3,3.12,4.18,4.18,0,0,1-3.1,1c-5.82,0-11.64.36-17.44-.21-6-4.3-12.54-7.82-18.94-11.52a2.28,2.28,0,0,1-1.1-1.43A43.21,43.21,0,0,1,424.79,811.49Z" transform="translate(-403.77 -650.62)"/>
    <path class="cls-2" d="M659.69,927.34c3.28,3.57,7.86,5.1,11.88,7.48,15.39,9.12,30.9,18,46.37,27-1,2-2.67,3.21-4.36,4.48-4-4-9.3-6-14.05-8.82-15-8.88-30.1-17.59-45.17-26.36C655.08,928.4,657.09,927.46,659.69,927.34Z" transform="translate(-403.77 -650.62)"/>
    <path class="cls-2" d="M601.26,988.82c5.4.65,9.15,4.64,13.73,6.94,5.94,3,11.51,6.67,17.28,10a9.45,9.45,0,0,1,3.5,3.2,99.36,99.36,0,0,1-19.41,3.66c-3.22-3.8-7.93-5.29-12-7.8-1.55-1-3.4-1.57-3.87-3.67C600.4,997,599.36,992.82,601.26,988.82Z" transform="translate(-403.77 -650.62)"/>
    <path class="cls-6" d="M588,694c-5.18-.58-8.77-4.38-13.12-6.62-6.8-3.51-13.35-7.53-20-11.4a13.46,13.46,0,0,1-2.16-2,113.14,113.14,0,0,1,20.14-3.78c3.28,4.2,8.43,5.62,12.62,8.47,1.22.83,2.77,1.25,3.19,2.94C588.9,685.78,589.9,690,588,694Z" transform="translate(-403.77 -650.62)"/>
    <path class="cls-2" d="M444.23,1020.37c10.6,0,21.19-.13,31.78-.1,4.08,0,6.55,2.51,6.45,6.14-.09,3.45-2.52,5.73-6.44,5.78-5.11.06-10.22-.06-15.33-.1-4.82-3-9.81-5.7-14.59-8.77C445.1,1022.68,443.35,1022.29,444.23,1020.37Z" transform="translate(-403.77 -650.62)"/>
    <path class="cls-18" d="M745,662.46c-10.6,0-21.19.13-31.78.09-4.08,0-6.54-2.52-6.44-6.15.1-3.45,2.51-5.72,6.45-5.76,5.11-.06,10.22.06,15.32.1,4.32,3.11,9.08,5.5,13.61,8.29C743.47,659.83,745.22,660.36,745,662.46Z" transform="translate(-403.77 -650.62)"/>
    <path class="cls-2" d="M745.05,1020.37c8.25,0,16.5,0,24.75-.16,1.26,0,2.73.64,3.78-.69,4.08.55,7.11,3.17,10.33,5.35a2.62,2.62,0,0,1,.78,3.62c-1.65,2.81-4.08,3.89-7.33,3.77-5.05-.2-10.1-.13-15.15-.17-5.21-2.76-10.19-5.92-15.29-8.88C745.88,1022.61,744.75,1021.91,745.05,1020.37Z" transform="translate(-403.77 -650.62)"/>
    <path class="cls-10" d="M444.21,662.46l-28.32.15c-2.68.29-10.16-3.35-11.26-5.52a2.59,2.59,0,0,1-.07-2.77c.84-2.91,3.12-3.67,5.74-3.68,5.58,0,11.16.06,16.75.1,5,2.87,9.91,5.92,15,8.69C443.17,660.06,444.48,660.73,444.21,662.46Z" transform="translate(-403.77 -650.62)"/>
    <path class="cls-2" d="M740.53,1032.09c-9.16,0-18.33.14-27.5.09-3.83,0-6.22-2.45-6.24-5.91s2.35-5.9,6.16-6,7.43.05,11.15.09c5,2.35,9.61,5.4,14.43,8.07C739.83,1029.16,741.48,1030,740.53,1032.09Z" transform="translate(-403.77 -650.62)"/>
    <path class="cls-1" d="M448.72,650.74c9.1,0,18.2-.14,27.3-.1,3.93,0,6.35,2.33,6.44,5.78.1,3.63-2.37,6.06-6.46,6.14-3.61.06-7.23-.06-10.84-.1-5.06-2.64-9.89-5.71-14.81-8.6C449.26,653.22,447.77,652.55,448.72,650.74Z" transform="translate(-403.77 -650.62)"/>
    <path class="cls-2" d="M784.69,1028.49c.18-2-1-3.06-2.63-4-2.87-1.6-5.65-3.33-8.48-5V996.3c1.06-1,2.11-.49,3.09.08,2.91,1.67,6,3.07,8.64,5.16q.06,12.08.11,24.17C785.42,1026.69,785.51,1027.72,784.69,1028.49Z" transform="translate(-403.77 -650.62)"/>
    <path class="cls-12" d="M404.56,654.32a3,3,0,0,0,1.45,3.21c3.35,1.58,6.15,4.24,9.88,5.08l-.21,23.91a1.88,1.88,0,0,1-2.37.06c-3.25-1.8-6.95-2.92-9.36-6q-.06-11.91-.11-23.83A3,3,0,0,1,404.56,654.32Z" transform="translate(-403.77 -650.62)"/>
    <path class="cls-2" d="M773.58,975.35c0-5.24-.17-10.47-.08-15.7.07-3.65,2.43-6,5.75-6.07,3.51-.1,6.09,2.27,6.13,6.07.09,7,0,14-.07,20.93-.95.82-1.94.39-2.75-.1C779.59,978.72,776.39,977.37,773.58,975.35Z" transform="translate(-403.77 -650.62)"/>
    <path class="cls-19" d="M415.68,708.23c0,5,.18,10,.08,14.94-.08,3.79-2.63,6.17-6.13,6.08a5.74,5.74,0,0,1-5.76-6.06c-.08-7,0-14,.08-20.93C408.77,702.46,412.16,705.47,415.68,708.23Z" transform="translate(-403.77 -650.62)"/>
    <path class="cls-20" d="M745,662.46c-3.4-3.73-8.32-5.09-12.28-7.93-1.52-1.1-3.77-1.45-4.17-3.79H751c.06,1.74,1.54,2.07,2.7,2.73,3.76,2.14,7.56,4.21,11.26,6.46,1,.59,2.35,1,2.5,2.53Z" transform="translate(-403.77 -650.62)"/>
    <path class="cls-2" d="M588,993.31c-5.6-1.47-10.27-4.86-15.19-7.63-14-7.91-27.94-16.12-41.88-24.23-19.3-11.24-38.55-22.56-57.87-33.74-11.28-6.53-22.66-12.89-34-19.28-1.4-.78-2.95-1.28-4.42-1.92-.11-.48-.21-1-.31-1.43,3.95-.14,6.63,2.69,9.67,4.42,18.54,10.55,36.92,21.38,55.39,32q25.13,14.52,50.32,28.92,17.43,10,34.85,20a24.63,24.63,0,0,0,3.45,1.33A1.26,1.26,0,0,1,588,993.31Z" transform="translate(-403.77 -650.62)"/>
    <path class="cls-2" d="M444.23,1020.37c2.52,3.38,6.65,4.38,9.9,6.67,2.26,1.59,5.1,2.43,6.56,5H438.24c-1.05-3.08-4.3-3.34-6.48-5-3.21-2.41-7.5-3.23-9.95-6.76Z" transform="translate(-403.77 -650.62)"/>
    <path class="cls-7" d="M415.68,708.23l-11.73-6v-21.7c4.05,1.71,7.42,4.76,11.73,6Z" transform="translate(-403.77 -650.62)"/>
    <path class="cls-21" d="M423.11,822.62c5.15,2.83,10.32,5.62,15.43,8.51,1.48.83,2.95,1.81,3.45,3.64-1.23,1.12-2.77,1-4.25,1-6.09.2-12.22-.51-18.25.87a1.89,1.89,0,0,1-1.41-.39c-2.3-3.52-6.64-4.18-9.59-6.8,2.68-3.54,6.37-5.32,10.63-6.1Z" transform="translate(-403.77 -650.62)"/>
    <path class="cls-1" d="M448.72,650.74c1.06,3.08,4.26,3.4,6.49,4.94,3.29,2.28,7.28,3.56,10,6.78h-21c-3.73-3.92-9-5.41-13.33-8.36a12.38,12.38,0,0,1-3.83-3.36Z" transform="translate(-403.77 -650.62)"/>
    <path class="cls-2" d="M773.58,975.35c3.11.25,5.45,2.16,8,3.64a30.07,30.07,0,0,0,3.73,1.59v21c-3.49-.18-5.73-3-8.74-4.19-1-.4-1.82-1.17-3-1.05Z" transform="translate(-403.77 -650.62)"/>
    <path class="cls-2" d="M740.53,1032.09c-1.43-4-5.8-4.15-8.61-6.36-2.48-1.94-5.79-2.73-7.82-5.36h20.95c3.27,3.68,8.07,5,12,7.72,1.79,1.26,4,2,5.19,4Z" transform="translate(-403.77 -650.62)"/>
    <path class="cls-16" d="M785.31,710.45c0,4.24.19,8.47.08,12.71-.1,3.8-2.63,6.18-6.13,6.09a5.75,5.75,0,0,1-5.76-6.07c-.09-6.23,0-12.46.08-18.69a1.66,1.66,0,0,1,2.08-.17C779,706.2,782.65,707.53,785.31,710.45Z" transform="translate(-403.77 -650.62)"/>
    <path class="cls-2" d="M404,972.38c0-4.21-.17-8.42-.09-12.62.09-3.82,2.49-6.19,6-6.18s5.89,2.38,5.94,6.2c.08,6.18-.05,12.37-.09,18.56a1.58,1.58,0,0,1-2.06.14C410.45,976.34,406.49,975.48,404,972.38Z" transform="translate(-403.77 -650.62)"/>
    <path class="cls-22" d="M773.58,667.82c3.22,0,5.28,2.53,8,3.68,1.24.53,2.5,1,3.75,1.56v20.2c-1.15,1-2.33.53-3.37-.1a86.34,86.34,0,0,1-8.36-5.14Z" transform="translate(-403.77 -650.62)"/>
    <path class="cls-2" d="M415.67,1015c-3-.77-5.29-2.85-8-4.21a7.12,7.12,0,0,0-3.74-1V988.84c4.72.4,8.06,3.5,11.73,6Z" transform="translate(-403.77 -650.62)"/>
    <path class="cls-1" d="M588,680.54c-5.32-1.79-9.78-5.16-14.56-7.93-1.2-.69-1.16-1.41-.54-2.39,2.59,0,3.6-1.24,3.73-3.87a12.59,12.59,0,0,1,3.55-8.33c2.62.72,4.69,2.44,7,3.82,1.23.75,2.36,1.74,4,1.58a36.9,36.9,0,0,0-2.22,14.76A3,3,0,0,1,588,680.54Z" transform="translate(-403.77 -650.62)"/>
    <path class="cls-2" d="M601.26,1002.28a119.48,119.48,0,0,1,13.62,7.52c1,.62,2.39,1.14,1.48,2.81-2.6,0-3.57,1.27-3.74,3.88a13.55,13.55,0,0,1-4.53,9.46c-2.44-3.51-6.44-4.64-9.92-6.55a36.5,36.5,0,0,0,2.22-14.75A3.1,3.1,0,0,1,601.26,1002.28Z" transform="translate(-403.77 -650.62)"/>
    <path class="cls-2" d="M588,1004.53c-6.11-1.93-11.22-5.79-16.71-8.87-13.83-7.79-27.5-15.85-41.24-23.8q-23-13.32-46-26.64-18.86-10.86-37.81-21.57c-1-.55-2.1-2.19-3.53-.53-.68-.3-.74-.89-.74-1.52,1-1.29,2.09-.94,3.28-.25q24,13.92,48,27.81L534.54,973c15.17,8.76,30.31,17.55,45.5,26.25,2.54,1.46,4.84,3.51,8,3.78A1.26,1.26,0,0,1,588,1004.53Z" transform="translate(-403.77 -650.62)"/>
    <path class="cls-16" d="M773.58,688c3.14.08,5.17,2.47,7.71,3.78,1.3.67,2.46,1.56,4,1.46v17.19c-4.23-1.36-7.39-4.82-11.73-6Z" transform="translate(-403.77 -650.62)"/>
    <path class="cls-2" d="M415.68,994.8c-4.31-1.2-7.68-4.26-11.73-6V972.38l11.72,6Q415.67,986.58,415.68,994.8Z" transform="translate(-403.77 -650.62)"/>
    <path class="cls-13" d="M612.61,667.07c-6.83-2.7-12.88-6.84-19.11-10.6-2-1.19-5.06-1.22-5.6-4.33a10.14,10.14,0,0,1,5.94-1.38c.32,1.79,1.68,2.6,3.12,3.39,4.74,2.59,9.27,5.55,14.29,7.63A8.06,8.06,0,0,1,612.61,667.07Z" transform="translate(-403.77 -650.62)"/>
    <path class="cls-23" d="M611.25,661.78c-2,.35-3.63-.46-5.26-1.38-3.53-2-7.13-3.92-10.55-6.1-1.06-.68-3.89-1.13-1.6-3.54C601.78,650.44,608.4,654.63,611.25,661.78Z" transform="translate(-403.77 -650.62)"/>
    <path class="cls-2" d="M577.92,1021.08a5.43,5.43,0,0,1,4.13,1.23c4.53,3.13,10,4.82,14,8.83.48.47,1.64.26,2.49.37C590.31,1033.9,581.7,1029.53,577.92,1021.08Z" transform="translate(-403.77 -650.62)"/>
    <path class="cls-24" d="M588,680.54c.06-3.18.18-6.36.15-9.53,0-3,.62-5.58,2.93-7.59a7.39,7.39,0,0,1,8.67,1.45c1.74,3,1.13,6.44,1.51,9.68v50.89c2,3.88,1.88,7.6-.88,11.11-2,2.48-4.48,3.92-7.73,2.9-3.52-1.1-4.24-4.12-4.65-7.28V680.54Z" transform="translate(-403.77 -650.62)"/>
    <path class="cls-25" d="M588,1004.53V967.12c0-2,0-4,0-6-1.73-2-1.11-4.33-1.17-6.58.13-2.9-.44-6,2.06-8.3,2-2.47,4.49-3.9,7.74-2.88,3.51,1.11,4.23,4.13,4.64,7.29v51.62c-.06,3.18-.17,6.36-.16,9.54,0,2.94-.62,5.57-2.93,7.58-3.64,1.24-7,1.37-9.61-2.15q-.28-4.86-.56-9.73Z" transform="translate(-403.77 -650.62)"/>
    <path class="cls-25" d="M659.69,927.34l-5.33,3.81-9.69,5.75-11.9,5.46-15.06,4.51c-3.66,1.13-5-.32-6.12-4-2.16-7.07-8.93-11.55-16.11-11.75-7.9-.22-14.09,3.57-17.26,10.55a10.08,10.08,0,0,1-1.53,6.28,3,3,0,0,1-2.11.53c-7.2-1.11-14.28-2.55-20.29-7.07a132.74,132.74,0,0,1-28.46-17.07A208.33,208.33,0,0,1,511,909.43,180.84,180.84,0,0,1,498.36,890c-2.22-1.18-2.46-3.58-3.39-5.54a87,87,0,0,1-3.84-10,104.4,104.4,0,0,1-2.9-11.12c-.26-1.4-.92-2.91.34-4.21,7.51-1.65,12.33-6.48,15.6-13.16a12.4,12.4,0,0,0,0-9c-1.54-7.34-6.49-11.3-13.33-13.35-1-.3-2.36.12-2.39-1.57l5.22-18.71q3.76-7.86,7.52-15.7l10.38-15.08L525,759.11l9.84-7.44,9.71-5.76,11.89-5.45L571.54,736c3.62-1.1,4.91.31,6.12,3.94,2.4,7.19,8,11.25,15.63,11.73S607,749,610.65,742c-.5-2.1.8-3.83,1.24-5.74.34-1.53,1.6-1.59,3-1.54,2,.08,3.42,1.39,5.2,1.88,5.75,2.11,11.73,3.57,17.35,6.1A110.6,110.6,0,0,1,676,771.07a19.27,19.27,0,0,0,1.6,1.53,172.92,172.92,0,0,1,13.3,20.27c2,1,2.3,3.09,3.11,4.85a99.55,99.55,0,0,1,4.13,10.69,104.58,104.58,0,0,1,2.9,11.13c.26,1.4.93,2.91-.35,4.21C694,825.57,688.58,829,686,835.88a1.88,1.88,0,0,1-1.07,1c-2.36,10.14,3.13,19.55,13,22.36,1.08.3,2.66-.19,2.87,1.65l-5.21,18.62L688,895.23l-10.41,15L664.15,923.7Z" transform="translate(-403.77 -650.62)"/>
    <path class="cls-6" d="M620.05,736.58c-2.29-.35-5.07-1.62-6.74-.76s-1.09,4.31-2.66,6.16c-3.91-.88-6.69-3.91-10.27-5.43,1.15-3.64.41-7.42.88-11.11A44.11,44.11,0,0,1,620.05,736.58Z" transform="translate(-403.77 -650.62)"/>
    <path class="cls-26" d="M769.68,847.28c-4.27,1.08-8.62.53-12.93.58-9.65.13-19.29.14-28.93.2h-23.2c-3.71-.24-7-1.16-8.35-5.18-1.07-4.6.53-7.41,5.05-8.67,4-1.12,8.15-.52,12.23-.65a37.39,37.39,0,0,0,4.1,0c8.13,0,16.27-.11,24.41.07,5.7-.23,11.41-.06,17.11-.09a7.31,7.31,0,0,1,4.58,1.28c.86.06,1.71.14,2.57.19,3.38.19,6.06,1.49,6.93,5C774.08,843.28,772.42,845.59,769.68,847.28Z" transform="translate(-403.77 -650.62)"/>
    <path class="cls-1" d="M763.75,834.77H742c-14-8.56-28.49-16.39-42.61-24.79a8.78,8.78,0,0,1-2.13-1.49q-3.19-7.82-6.4-15.62c5.19.54,8.87,4.2,13.12,6.57,14.09,7.85,28,16,41.94,24.09,5.27,3,10.56,6,15.83,9.07A4.35,4.35,0,0,1,763.75,834.77Z" transform="translate(-403.77 -650.62)"/>
    <path class="cls-26" d="M418.08,836.29c3.22-1.74,6.73-1.31,10.18-1.35l13.73-.17h42.65c6.73.91,8.1,2.25,8.35,8.11-.47,3.57-1.93,5.13-5.91,5.92-4.41.88-8.9.31-13.35.44-8.84.18-17.68.13-26.52,0-5.59.23-11.17.07-16.76.08a6,6,0,0,1-4.18-1.26c-.86-.06-1.73-.14-2.6-.17-3-.11-5.7-.71-7.19-3.74S416.17,838.63,418.08,836.29Z" transform="translate(-403.77 -650.62)"/>
    <path class="cls-3" d="M426.27,848.06h21c14.07,8.5,28.5,16.38,42.62,24.78a8.81,8.81,0,0,1,2.13,1.5L498.36,890c-6.11-1.33-10.87-5.39-16.13-8.34-15.83-8.86-31.5-18-47.09-27.29C432.07,852.5,428,851.81,426.27,848.06Z" transform="translate(-403.77 -650.62)"/>
    <path class="cls-2" d="M576.54,947.36a10.05,10.05,0,0,1,1.68-5.68c2.54,0,4.22,1.86,6.21,3a9,9,0,0,0,4.45,1.59c-.87,2.65-.56,5.44-.89,8.15C584.21,954.82,577.44,950.66,576.54,947.36Z" transform="translate(-403.77 -650.62)"/>
    <path class="cls-27" d="M717.36,834.77c-4.3.05-8.6.09-12.9.18-6,.12-8,2.08-8.19,7.93-3.41-2.71-7-5.1-11.35-6,2.24-7.73,7.8-12.63,15.21-13.39,5.93,2,11,5.56,16.17,8.84C717.09,832.78,717.9,833.57,717.36,834.77Z" transform="translate(-403.77 -650.62)"/>
    <path class="cls-2" d="M576.54,947.36c3.06,3.58,7.35,5.17,11.45,7v6.73c-5.24-.78-9.08-4.41-13.52-6.79-5.91-3.17-11.6-6.74-17.4-10.11-1.2-.69-2.43-1.29-2.78-2.81,6,2.13,11.88,4.76,18.3,5.76A26.42,26.42,0,0,0,576.54,947.36Z" transform="translate(-403.77 -650.62)"/>
    <path class="cls-3" d="M474.16,848.06c3.69-.06,7.37-.16,11.06-.17s6.43-1.39,7.77-5c.61-2,1.77-1.83,3.25-.91,2.52,1.56,4.95,3.32,7.93,4a17,17,0,0,1-15,13.44c-4.69-2-8.94-4.79-13.26-7.41C474.59,851.19,473.08,850.07,474.16,848.06Z" transform="translate(-403.77 -650.62)"/>
    <path class="cls-5" d="M566.09,845.17A19.28,19.28,0,0,1,562,855.35c-1.08,1.51-1.33,2.31.57,3.36a33.38,33.38,0,0,1,9.88,8.33c.83,1,1.56,1.54,2.74.58,1.39-1.13-.18-1.6-.49-2.37-.51-1.24-1.88-2-1.82-3.55.12-2.08,1.68-1.61,2.63-1.15A173.48,173.48,0,0,1,595.44,872c1.77,1.18,1.29,2.54-.76,3.08-1.43.39-3,.12-4.39.63-2.82.33-5.33,1.92-8.22,1.95-18.9-11.59-38.35-22.24-57.45-33.49-2.36-1.39-3.75-1.27-4.9,1.16-1.68-8.51,1-15.53,7.36-21.25,1.95-.6,3.29.74,4.76,1.56C543.3,832.09,554.51,839,566.09,845.17Z" transform="translate(-403.77 -650.62)"/>
    <path class="cls-3" d="M590.14,875c1.63-1.38,3.86,0,6-1.27-4.61-3.53-9.58-5.85-14.21-8.69q-2.83-1.74-5.79-3.27c-1-.52-2.15-1.54-3.24,0a19.16,19.16,0,0,1-2.13-15.05c1.3-1,2.37-.11,3.41.49,16.79,9.69,33.53,19.45,50.37,29.06a2.36,2.36,0,0,1,.54.51c2.63,7.1,7.64,9.95,15.11,8.61a8.26,8.26,0,0,1,4,.42c4.49,2.37,8.76,5.12,13.12,7.71a8.33,8.33,0,0,1,1.21.86c.83.74,1.84,1.51,1.38,2.78s-1.68.78-2.6.78c-7.18,0-14.36,0-21.54.06-1.17,0-2.87-.82-3.34,1.26-1.46,2-2.87.42-4.17-.17-2.93-1.32-5.47-3.48-8.69-4.24-1.5-1.1-1.83-2.91-2.63-4.42-4.8-9.15-12.21-14.1-22.65-14.32C592.84,876,591.24,876.36,590.14,875Z" transform="translate(-403.77 -650.62)"/>
    <path class="cls-8" d="M685,890c-.41,2.52-.21,5.29-2.81,6.92-4.1-2.54-8.37-4.78-12.43-7.37-1.23-.78-3.09-1.33-2.51-3.5,4.2-1.51,4.32-1.87,2-5.93-5.88-10.51-15.8-15.28-27.78-13.38A11.29,11.29,0,0,1,639,867c-4.24-1-7.48-3.81-11.08-6a2,2,0,0,1-1-2.22c1.87-1,1.43-2,.4-3.46-4.25-6.08-5.66-12.73-3.46-20,4.24,3.71,9.36,6,14.14,8.86,10.24,6.08,20.63,11.88,30.89,17.92,1.16.68,2.26,1.54,3.72,1.54a34.1,34.1,0,0,1,12,22.45C685.15,887.36,684.43,888.78,685,890Z" transform="translate(-403.77 -650.62)"/>
    <path class="cls-7" d="M672.53,863.68c-1.41,1.71-2.54.06-3.5-.48-8.73-4.93-17.38-10-26-15-5.57-3.22-11.11-6.48-16.7-9.66-1.32-.75-2.75-1.27-2.5-3.19a20.33,20.33,0,0,1,11-14.26c1.37-.38,2.37.44,3.4,1.07,9.28,5.71,18.75,11.11,28.26,16.41,3.1,1.73,4,3.61,3.06,6.78,0,3.74-1.68,6.92-3.83,9.77-1.45,1.93-1.5,3,.73,4.21A65.77,65.77,0,0,1,672.53,863.68Z" transform="translate(-403.77 -650.62)"/>
    <path class="cls-5" d="M624.38,876.57c-4.19-1-7.47-3.7-11.08-5.76-13.64-7.79-27.2-15.73-40.8-23.59a8.53,8.53,0,0,0-1.75-.57c.58-5.74,3.62-10,8-13.54,1.27-.7,2.39-.18,3.49.46,11,6.44,22,12.85,33.17,19.11a9.32,9.32,0,0,1,1.68,1.45c-.84,4.31-1.49,8.7-5.24,11.73-.59.47-1.1,1.26.06,1.65,1.31.45,2.53,2.49,4.08.51,1.74-2.22,3.41-4.48,6-5.76a10.6,10.6,0,0,1,10.35,6.49A49.54,49.54,0,0,1,624.38,876.57Z" transform="translate(-403.77 -650.62)"/>
    <path class="cls-9" d="M567.63,789c.82-3.14,3.15-5.31,6-5.13,5,.3,5.84-2.06,5.37-6.08,1.34-1.14,2.64-.41,3.8.25,11.25,6.44,22.54,12.82,33.66,19.48a4.85,4.85,0,0,1,2.16,2,126.55,126.55,0,0,1-9.79,12.7c-1,.79-1.88.26-2.73-.24-12.19-7.34-24.62-14.28-36.87-21.52A3.92,3.92,0,0,1,567.63,789Z" transform="translate(-403.77 -650.62)"/>
    <path class="cls-3" d="M519.72,845.35c.26-4.45.53-4.69,4-2.68q27.12,15.57,54.18,31.27c1.46.84,3.13,1.6,4,3.28a2.86,2.86,0,0,1-1.72,2.27c-3.38,1.82-5.3,5.42-8.8,7.08-3.43-2-7.23-3.35-10-6.39,1.3-4.86.9-6.07-3.58-9.18a26.45,26.45,0,0,0-14.35-4.7c-1.85-.06-3.74.2-5.56-.4a78.15,78.15,0,0,0-10.49-6.58c-1-.54-2-1-2.33-2.18C522.21,853.71,520,850,519.72,845.35Z" transform="translate(-403.77 -650.62)"/>
    <path class="cls-3" d="M561.71,880.32c3.41,1.79,7.07,3.19,9.78,6.12,1,1.93-.78,3.16-1.31,4.68-1.21,3.44-1.2,3.6,2.26,4.11a6.4,6.4,0,0,1,1.41.38c4.63,2.8,9.49,5.21,13.92,8.3,1.19.82,3.64,2.07.48,3.72-9.17-.2-18.34.38-27.5-.31-3.78.06-5.7-2.3-5.59-5.57.11-3.46-1.32-3.72-4.12-3.69-12.84.13-25.68.07-38.51,0-1.34,0-2.76.35-4-.55,1.15-1.22,2.69-1.16,4.16-1.16,5.06,0,10.13-.14,15.19.07,6.54,0,13.1.16,20.44-.06-3.63-3-7.34-4.42-10.51-6.63-1.24-.86-3.61-1.38-2.11-3.85,3.72-1.36,7.58-.47,11.37-.69,2.09-.11,4.2-.07,6.29,0,2.55.08,4.57-.65,5.88-3C559.75,881.28,560.29,880.16,561.71,880.32Z" transform="translate(-403.77 -650.62)"/>
    <path class="cls-28" d="M567.63,789c6.19,2.56,11.69,6.37,17.48,9.63,7.95,4.48,15.84,9.06,23.76,13.59-2.52,3.37-4.9,6.85-7.6,10.07-3.7,4.42-9.64,4.52-13.24,0C581.36,814,574.92,805.5,568.47,797A7.12,7.12,0,0,1,567.63,789Z" transform="translate(-403.77 -650.62)"/>
    <path class="cls-11" d="M579,765.09c-.25-7.09,3.38-11,10.39-11.09,3.73,0,7.47-.12,11.19,0,6,.22,9.65,4,9.7,10,.06,5.83-.06,11.67-.1,17.51-1.17,1-2.35.51-3.42-.11q-13.32-7.7-26.66-15.36A6.44,6.44,0,0,1,579,765.09Z" transform="translate(-403.77 -650.62)"/>
    <path class="cls-12" d="M579,765.09c4.74,1.21,8.49,4.35,12.7,6.6,5.32,2.84,10.45,6.06,15.65,9.13a4.79,4.79,0,0,0,2.83.73c0,1.56.74,2.17,2.31,2.05,4.26-.31,7.61,1.2,9.24,5.32s0,7.69-3.11,10.62c-7.94-4.55-15.8-9.26-23.87-13.58-5.21-2.79-9.82-6.76-15.75-8.15Z" transform="translate(-403.77 -650.62)"/>
    <path class="cls-3" d="M566.09,845.17c-4.1.32-6.7-2.79-9.84-4.5-9.83-5.33-19.46-11-29.17-16.57a22.94,22.94,0,0,1,26.16-3.87C562.7,824.9,567.54,834.31,566.09,845.17Z" transform="translate(-403.77 -650.62)"/>
    <path class="cls-5" d="M617.07,854.13c-7.39-2.7-13.58-7.61-20.5-11.17-6-3.12-11.53-7.24-17.84-9.85a22.94,22.94,0,0,1,26.94-2.53C614.08,835.48,618.9,845.42,617.07,854.13Z" transform="translate(-403.77 -650.62)"/>
    <path class="cls-21" d="M474.16,848.06c1.27,4.74,6.22,4.83,9.31,7.27,1.8,1.42,4.19,2.08,5.66,4-.68,3.89,1.05,7.39,1.79,11,.27,1.33.69,2.61,1.05,3.92-4.38-.6-7.48-3.73-11.11-5.74-10.73-5.94-21.24-12.26-31.84-18.42-.86-.5-1.83-.88-1.8-2.12Z" transform="translate(-403.77 -650.62)"/>
    <path class="cls-10" d="M717.36,834.77c-2.7-3.87-7.36-4.86-11-7.41-2-1.42-4.17-2.61-6.27-3.91.66-3.89-1-7.39-1.8-11.05-.27-1.32-.69-2.61-1-3.91,4.7.77,8.11,4.11,12.1,6.26,9.92,5.35,19.59,11.15,29.34,16.82,1.33.78,3,1.27,3.3,3.2Z" transform="translate(-403.77 -650.62)"/>
    <path class="cls-14" d="M560.75,907.32l28.64-.17c2-1.4,4.29-.82,6.47-.87,3.81-.1,7.63,0,12.18-.09-3.86-3-7.77-4.48-11.11-6.86-1.22-.87-3.36-1.58-1.77-3.86,3.9-1.11,7.88-.43,11.82-.54,4.33-.13,8.66,0,13-.22,1.25-1.59,2.21-.13,3.17.36,3,1.52,5.89,3.13,8.83,4.71.76,1.06.47,2.17.17,3.28-.26,2.66-2,3.87-4.38,4.33a21.3,21.3,0,0,1-4.07.34q-29.64,0-59.28,0C563.18,907.73,561.9,908,560.75,907.32Z" transform="translate(-403.77 -650.62)"/>
    <path class="cls-21" d="M535.52,886.31c2.53,3.82,7.2,4.5,10.55,7.13a12.82,12.82,0,0,0,1.65.85c1.06.59,2.65,1.11,2.29,2.52s-1.93.69-3,.69c-6.1,0-12.19,0-18.29,0-7.77-5-16.17-8.93-23.8-14.16,1-3,1.51-6.32,3.49-9,.54-.51,1.13-1.24,1.91-.87,3.29,1.54,7,2.46,9,6-1.31,5.86-1.31,5.71,5,5.93C528.07,885.44,532,884.26,535.52,886.31Z" transform="translate(-403.77 -650.62)"/>
    <path class="cls-9" d="M669.52,845.36c-.11-2.27,0-4-2.83-5.55-10.82-5.89-21.29-12.42-31.89-18.71a23,23,0,0,1,25.78,1.41C667.9,828,671.62,837.57,669.52,845.36Z" transform="translate(-403.77 -650.62)"/>
    <path class="cls-29" d="M632.13,903.06c-.06-1.09-.11-2.19-.17-3.28-.06-2.5,1.7-2.26,3.35-2.26,7.22,0,14.44,0,21.66,0,.8,0,1.94.42,2.3-.64s-.8-1.35-1.47-1.82c-4.45-3.14-9.54-5.27-13.79-8.74a2.18,2.18,0,0,1,1.23-.8,108.87,108.87,0,0,1,20.74,0,2.18,2.18,0,0,1,1.23.8c3.65,3.79,8.72,5.39,12.93,8.3.9.62,2.08.93,2.08,2.33-1.54,1.39-3.45,1.17-5.29,1.18-12.67,0-25.35.14-38-.08C635,898,631.88,898,632.13,903.06Z" transform="translate(-403.77 -650.62)"/>
    <path class="cls-14" d="M505,883.31c4.73,1.19,8.54,4.23,12.63,6.6,3.86,2.25,8.44,3.59,11.17,7.56l-20.22.08c-3.2-.63-4.32-2.84-4.47-5.83A44.71,44.71,0,0,1,505,883.31Z" transform="translate(-403.77 -650.62)"/>
    <path class="cls-14" d="M525.11,857.14c4.34,2.59,9.48,4,12.68,8.31a1,1,0,0,1-.7,1.17c-4,1.09-7.42,3.33-11.12,5-3.42-2.29-7.61-3.51-10.11-7.11C518.27,861.21,522.11,859.71,525.11,857.14Z" transform="translate(-403.77 -650.62)"/>
    <path class="cls-14" d="M515.86,864.52c3.18,2.41,7.22,3.52,9.92,6.64-1.82,2.88-3.21,6.12-6.54,7.73-2.23-1.24-4.45-2.51-6.72-3.68-1.26-.65-2.46-1.73-4.07-.91A28.25,28.25,0,0,1,515.86,864.52Z" transform="translate(-403.77 -650.62)"/>
    <path class="cls-30" d="M632,869c-2.09-4.13-6.15-5.31-10-6.75a13.56,13.56,0,0,1,4.84-3.47,40.33,40.33,0,0,0,12,7.33C637.24,868.68,635,869.79,632,869Z" transform="translate(-403.77 -650.62)"/>
    <path class="cls-29" d="M685,890c-1.06-1.17-.48-2.58-.55-3.89A5.89,5.89,0,0,1,685,890Z" transform="translate(-403.77 -650.62)"/>
    <path class="cls-26" d="M620,894.71c-1,1.38-2.4,1-3.74,1.06l-21.61.18c-.28.24-.51.61-.88.66-6.72.76-13.45,1.59-20.07-.66-6.68-.51-6.79-.72-3.51-6.92l1.34-2.59a42.86,42.86,0,0,1,10.42-9.22l8.23-2.26C605,874.06,614.85,880.83,620,894.71Z" transform="translate(-403.77 -650.62)"/>
    <path class="cls-31" d="M632,869l6.78-2.89c9-1.87,17.29-.76,24.61,5.21a29,29,0,0,1,8.18,11.39c1.23,2.85.45,3.86-2.55,3.45a7.78,7.78,0,0,0-1.85.14H644c-2.48-.06-5-.15-7.44-.16-7.33,0-9.91-2-12.19-9.58A20.88,20.88,0,0,1,632,869Z" transform="translate(-403.77 -650.62)"/>
    <path class="cls-31" d="M519.24,878.89a49.37,49.37,0,0,1,6.54-7.73,39.16,39.16,0,0,1,12-5.71c8.19-.78,15.81.58,22.28,6.11,4.51,3.85,4.5,3.87,1.64,8.76-2.1,6-6.76,6.29-12.11,5.91-4.67-.34-9.39,0-14.08.08-5.06-.06-10.12-.33-15.16-.09-3.67.17-4-1.18-2.61-4C518.28,881.13,518.75,880,519.24,878.89Z" transform="translate(-403.77 -650.62)"/>
    <path class="cls-3" d="M573.66,896h21c3.18,4,8.26,5.18,12.21,8,.5.36,1.11.54,1.64.86.71.41,1.81.66,1.41,1.79-.3.87-1.25.6-2,.6q-9.27,0-18.53-.09c-1.76-3.57-5.65-4.32-8.54-6.38C578.5,899.11,575.54,898.33,573.66,896Z" transform="translate(-403.77 -650.62)"/>
  </g>
</svg>
