<svg id="Layer_1" data-name="Layer 1" xmlns="http://www.w3.org/2000/svg" viewBox="0 0 331.72 371.2">
  <defs>
    <style>
      .cls-1 {
        fill: #0e2f4f;
      }

      .cls-2 {
        fill: #f49d19;
      }
    </style>
  </defs>
  <g>
    <path class="cls-1" d="M638.66,933.17a31.39,31.39,0,0,0,8.63-3.83q28.88-16.8,57.73-33.61c7.67-4.48,15.61-8.24,24.41-9.92,14.45-2.76,26.55,4,30.1,16.71a24.49,24.49,0,0,1-11,28.06Q695.47,963.3,642.4,996c-12.21,7.54-25.11,9.52-39,5.73-23.63-6.43-47.4-12.4-70.93-19.18-6-1.74-9.26,1.82-13.5,3.86-1.35.65-.15,1.53.18,2.15,1.26,2.42,2.73,4.74,4,7.19,3.57,7.13,1.55,15.08-5.22,19.28-5.91,3.66-12,7.13-18.17,10.3-7.48,3.83-15.54,1-20-6.85q-20.44-36-40.81-72.08c-2.57-4.54-5.18-9.07-7.72-13.64-4.67-8.41-2.47-16.62,5.78-21.42q7.74-4.5,15.6-8.81c8.17-4.49,16.38-2.18,21.13,5.86,3.65,6.17,3.65,6.17,9.89,2.57,13.67-7.9,27.29-15.92,41.06-23.66,9.11-5.13,18.74-8.67,29.5-7.83,5.81.45,11.12,2.55,16.51,4.45,17.34,6.14,34.61,12.39,52.75,16,13,2.6,20.69,17,16.52,29.65C639.6,930.64,639.2,931.66,638.66,933.17Z" transform="translate(-428.79 -655.83)"/>
    <path class="cls-1" d="M635.81,655.83a24.22,24.22,0,0,1,14.32,4.89c16.39,12,10,9.25,30.23,10.79,10.17.77,19.13,7.65,20.9,18.26A42.9,42.9,0,0,0,717,717.05c8.56,7.11,10.41,18.08,4.94,27.79s-7.73,19.1-5.59,30.24S713.6,794.82,703.41,800c-2.3,1.16-1.63,2.21-1,3.74,5.38,12.42,10.72,24.87,16.11,37.28,1.19,2.74,2.07,5.46,0,8.09-2.2,2.83-5.22,2.38-8.23,1.74-6.33-1.34-12.67-2.61-19-4-2.08-.46-3.39,0-4.55,1.92-3.4,5.78-7.09,11.41-10.55,17.16-1.52,2.51-3.32,4.48-6.46,4.26s-4.61-2.39-5.76-5.11c-4.6-10.87-9.41-21.65-13.95-32.54a5.94,5.94,0,0,0-4.44-3.87c-4.79-1.26-9.42-3.26-14.57-1.49a5.4,5.4,0,0,0-3.63,3.18c-6.63,14.46-13.41,28.84-20.09,43.27-1.24,2.69-2.54,5.2-6,5.44-3.59.26-5.27-2.11-6.81-4.84-3.18-5.63-6.57-11.14-9.69-16.81-1.13-2-2.25-2.73-4.69-2.22-6.7,1.38-13.49,2.33-20.21,3.6-2.82.53-5.26.16-7-2.21s-1.17-4.87,0-7.39c6.74-14.4,13.37-28.86,20.19-43.22,1.1-2.32,1.3-3.33-1.51-4.51-13.47-5.62-18.3-13.9-16-28.61a37.33,37.33,0,0,0-4.38-25C543.85,734.35,545.44,725,557,715c7.31-6.32,11.2-13.75,13-23.07,2.55-13.43,10.42-19.74,24.08-20.49,3.24-.18,6.47-.43,9.7-.61a15.6,15.6,0,0,0,8.62-3.18c3.4-2.52,6.78-5.07,10.22-7.54A22.82,22.82,0,0,1,635.81,655.83Z" transform="translate(-428.79 -655.83)"/>
    <path class="cls-2" d="M551.89,891.37c4.19-.33,8.71,1.64,13.25,3.28,18,6.49,36,13,54.83,16.85a11,11,0,0,1,9,12.64c-.88,5.9-5.43,9.39-12.31,8.61-8.92-1-17.41-4.07-26.05-6.37-4.69-1.24-9.32-2.7-14-3.91a6,6,0,0,0-7.26,3.73,5.73,5.73,0,0,0,3.63,7.57c16.89,4.64,33.52,10.4,51,12.42,10.66,1.22,20.43-1.24,29.65-6.68q29.25-17.25,58.67-34.19c7.14-4.12,14.52-7.78,23-8,9.46-.24,14.77,6.4,12.62,15.66a10.45,10.45,0,0,1-4.77,6.85Q689,953.17,634.85,986.52c-9.28,5.71-19.08,6.27-29.47,3.41-24.33-6.7-48.74-13.09-73.08-19.74-4.32-1.18-8.14-1.32-12,1.45-2.46,1.75-5.43,4.83-8,4-2.14-.74-3.19-4.72-4.66-7.3-7.68-13.51-15.31-27.06-23-40.54-1.12-2-1.24-2.91,1.05-4.2,14.82-8.4,29.5-17,44.3-25.49C536.48,894.34,543.31,891.35,551.89,891.37Z" transform="translate(-428.79 -655.83)"/>
    <path class="cls-2" d="M512.82,1002.27c-.17,2.11-1.46,2.87-2.79,3.61-4.66,2.62-9.39,5.13-13.95,7.92-2.92,1.78-4.64,1.22-6.28-1.72-7.58-13.57-15.29-27.06-22.95-40.59q-12.32-21.75-24.62-43.5c-2.29-4-2.1-4.69,2-7,4.54-2.58,9.12-5.08,13.63-7.72,2.57-1.5,4.29-1.08,5.79,1.58q24,42.57,48.08,85.08C512.2,1000.76,512.55,1001.68,512.82,1002.27Z" transform="translate(-428.79 -655.83)"/>
    <path class="cls-2" d="M567,777.79c.32-2.65.63-5.88,1.11-9.08,1-7,.42-13.62-3-19.9-1.68-3-3.21-6.17-4.69-9.32-2.4-5.1-2-10.18,2.4-13.59a49.34,49.34,0,0,0,19.39-33.62c.74-5.43,5.11-8.43,10.6-8.82a22.92,22.92,0,0,1,2.61-.13c12.35.57,22.75-3.76,32-11.82,6.17-5.35,10.8-5.35,17,0a46.76,46.76,0,0,0,32.42,11.9c8.68-.07,12.06,2.85,13.43,11.4,1.89,11.9,7,21.67,16.68,28.92a11.76,11.76,0,0,1,1.1,1c5.27,5,6,9.27,2.85,15.72a47.14,47.14,0,0,1-2.22,4.3c-5.57,8.83-6.3,18.34-4.51,28.4,1.86,10.44.11,14-9.71,17.54A44.25,44.25,0,0,0,670,811.39c-4.91,8.6-8.73,10-18,6.58a44.35,44.35,0,0,0-32.32,0c-9.1,3.38-13.1,2-17.7-6.35-6.13-11.2-15.42-17.8-27.14-21.9C569.17,787.74,566.83,783.8,567,777.79Z" transform="translate(-428.79 -655.83)"/>
    <path class="cls-2" d="M585.24,808.34c7.45,10.68,12.48,23.37,28.48,23.14l-13.35,28.73c-2.88-5-5.6-9.46-8.14-14.06-1.9-3.45-4.61-4.53-8.4-3.76-5,1-10,1.81-15.73,2.83Z" transform="translate(-428.79 -655.83)"/>
    <path class="cls-2" d="M703.87,837.22c-5.31-1.09-10-2-14.75-3-5.42-1.13-7-.49-9.88,4.16-2.62,4.2-5.22,8.4-8,12.95-3-6.85-5.75-13.32-8.65-20.06,8.55-1.63,13.92-7,18.08-14,2-3.41,4-6.88,7-9.66,1.63-1.54,2.73-2.11,3.89.71C695.38,817.82,699.55,827.2,703.87,837.22Z" transform="translate(-428.79 -655.83)"/>
    <path class="cls-1" d="M463.66,929.74a5.94,5.94,0,0,1-5.86,6,5.87,5.87,0,0,1-6.1-5.71,6,6,0,0,1,6-6.25A6.11,6.11,0,0,1,463.66,929.74Z" transform="translate(-428.79 -655.83)"/>
    <path class="cls-1" d="M690.72,743.79a54.84,54.84,0,1,1-54.75-55A55,55,0,0,1,690.72,743.79Z" transform="translate(-428.79 -655.83)"/>
    <path class="cls-2" d="M678.75,743.66A42.86,42.86,0,1,1,636,700.77,43.1,43.1,0,0,1,678.75,743.66Z" transform="translate(-428.79 -655.83)"/>
    <path class="cls-1" d="M625,766.59a6.39,6.39,0,0,1-5-2.32c-4.76-4.75-9.55-9.48-14.26-14.29-2.87-2.93-3-6.42-.47-8.92s6-2.3,8.94.54,5.95,5.69,8.7,8.74c1.59,1.77,2.59,1.79,4.35.17,9.69-9,19.5-17.81,29.29-26.67a12.26,12.26,0,0,1,3.57-2.63,5.91,5.91,0,0,1,6.67,9.31,58.46,58.46,0,0,1-5.44,5.1Q645.73,749.83,630.08,764C628.6,765.35,627.12,766.72,625,766.59Z" transform="translate(-428.79 -655.83)"/>
  </g>
</svg>
