<svg id="Layer_1" data-name="Layer 1" xmlns="http://www.w3.org/2000/svg" viewBox="0 0 372.1 371.12">
  <defs>
    <style>
      .cls-1, .cls-4, .cls-6 {
        fill: #0e2f4f;
      }

      .cls-2 {
        fill: #f9f9f9;
      }

      .cls-3 {
        fill: #feb31f;
      }

      .cls-4 {
        opacity: 0.3;
      }

      .cls-5 {
        fill: #eaeaea;
      }

      .cls-6 {
        opacity: 0.5;
      }

      .cls-7 {
        fill: #fea900;
      }

      .cls-8 {
        fill: #feaa01;
      }

      .cls-9 {
        fill: #fefefe;
      }

      .cls-10 {
        fill: #f49d19;
      }
    </style>
  </defs>
  <g>
    <path class="cls-1" d="M781.84,767.75c-2.18,4.93-1.88,10.32-2.83,15.47s-1.63,10.51-2.22,15.8c-.23,2.12-1.22,2.24-2.9,2-7-1.06-14.11-2-21.17-3.1-5.85-.88-11,1.19-13.76,5.92-2.89,5-2.46,10,.92,14.61,4.28,5.87,8.61,11.69,13.09,17.41,1.36,1.75,1.34,2.61-.51,4q-13.32,9.77-26.42,19.83c-1.78,1.37-2.58.88-3.7-.64-3.86-5.27-7.81-10.48-11.73-15.71a16.94,16.94,0,0,0-4.22-4.43,5.23,5.23,0,0,1-2.42-.64c-8.21-3.09-15.2.73-16.87,9.36-1.25,6.42-1.93,12.93-3,19.38-.88,5.31-1.3,5.72-6.52,5-9.6-1.25-19.17-2.69-28.75-4.09-5.21-.76-5.25-.87-4.59-5.94.78-6.12,1.69-12.23,2.6-18.33a18.28,18.28,0,0,0,.18-5.06c-1.08-8.56-9.76-13-17.47-8.79-4.37,2.38-8,5.79-12.07,8.7-1.86,1.35-3.66,2.78-5.53,4.12-3.71,2.64-4.84,2.55-7.51-1q-9.12-12-18.09-24.11c-2.48-3.35-2.33-4.27,1-6.83,5.27-4.06,10.62-8,16-12,4.48-3.32,6.24-7.79,5-13.06s-5.18-7.76-10.15-8.7c-6.9-1.3-13.89-2-20.82-3.11-3.61-.57-4.12-1.13-3.67-4.78,1.33-10.69,3-21.32,4.48-32,.36-2.6,1.74-3.47,4.26-3.14,6.84.88,13.66,2,20.49,2.88,7.78,1.05,13.31-2.61,14.7-9.57.74-3.72-.55-6.92-2.7-9.84-3.95-5.36-8-10.63-12-16-2.51-3.41-2.4-4.26.93-6.81,2-1.53,3.84-3.36,6.44-3.9,6-4.45,12.17-8.76,18-13.41,2.67-2.11,4.09-2.49,6.29.74a161.59,161.59,0,0,0,13.46,17.55c6.87,7.62,18.71,4.48,21.35-5.47a104,104,0,0,0,1.89-11.43q.89-5.92,1.63-11.86c.25-2,.84-2.78,3.22-2.41,10.87,1.7,21.78,3.14,32.68,4.62,1.74.23,2.58.72,2.26,2.73-1.13,7-2.06,14.12-3.14,21.17-.88,5.8.7,10.63,5.72,13.85s10,2.67,14.6-.67c5.89-4.25,11.69-8.63,17.42-13.08,1.77-1.37,2.77-1.54,4.24.48q9.63,13.2,19.58,26.16c1.35,1.75,1.3,2.64-.55,4-5.61,4-11,8.26-16.6,12.35-4.82,3.55-7.4,8.2-6,14.13s5.64,9,11.67,9.84c7.9,1.08,15.78,2.31,23.68,3.47Z" transform="translate(-409.74 -657.48)"/>
    <path class="cls-2" d="M610.36,1027.89c0,.24,0,.47,0,.71H582.74v-.71c1-1.08,2.36-1.13,3.68-1.15q10.13-.1,20.25,0C608,1026.76,609.35,1026.81,610.36,1027.89Z" transform="translate(-409.74 -657.48)"/>
    <path class="cls-3" d="M610.34,690.67c-2.28,1.78-4.47,3.71-6.88,5.3-2,1.28-1.79,2.22-.45,3.93,4.25,5.43,8.28,11,12.45,16.53,3.7,4.87,4.81,10.08,1.54,15.5s-8.52,6.72-14.5,5.86c-6.82-1-13.67-1.83-20.46-3-2.23-.38-2.67.39-2.92,2.31-1.46,10.91-3,21.82-4.62,32.7-.31,2.05,0,2.77,2.15,3,6.84.85,13.65,1.92,20.48,2.86,6.56.9,11.13,4.27,12.31,9.62,1.33,6.08-.9,10.84-5.92,14.49-5.68,4.13-11.21,8.46-16.88,12.59-1.49,1.09-1.69,1.82-.52,3.36q10.13,13.28,20,26.72c1.22,1.65,2.06,1.78,3.69.51,5.44-4.23,11-8.33,16.53-12.44s11.17-4.69,15.84-1.59c5.45,3.59,6.59,8.84,5.6,14.95-1.1,6.8-2,13.64-3,20.45-.26,1.65.26,2,1.79,2.27,11.26,1.57,22.52,3.18,33.75,4.9,2.56.4,2.4-1.27,2.62-2.78,1-6.94,1.94-13.89,3-20.83,1.61-10.69,12-15.25,20.46-9.06-8.46,25.86-23.81,46.56-46.53,61.62C647.07,909,640.93,920.7,641.4,936c.2,6.41,0,12.83.05,19.25.1,9.33-3.51,16.39-12.23,20.41-2.2,2-4.87,2.47-7.72,2.47-16.41,0-32.82,0-49.23,0-2.76,0-5.61,0-7.72-2.32C556,972.08,552,965.55,552,956.22s.56-18.77-.42-28.14a5,5,0,0,0-.62-2.77c-1.92-2.78-2.37-6.18-3.91-9.17a34.45,34.45,0,0,0-10.73-12.49c-6.2-4.4-12.32-8.87-18.07-13.83-11.26-10.75-20.55-22.93-26.92-37.21-.59-1.32-1.13-2.66-1.81-4-5.23-12.24-7.79-25.09-8.75-38.29-.14-1.9-.4-3.89.86-5.6.39-20.84,5.26-40.49,16-58.43,17.22-28.68,42.27-46.64,74.85-54.12,11.55-2.65,23.24-2.94,35-2.14A19.92,19.92,0,0,1,610.34,690.67Z" transform="translate(-409.74 -657.48)"/>
    <path class="cls-4" d="M518.84,889.31c6.1,5.09,12.67,9.55,19,14.36,7.09,5.42,11.83,12.57,13.16,21.64-6.36,5.43-12,11.63-17.84,17.55-1.77,1.79-3,1.71-4.78.38-4.38-3.2-8.83-6.31-13.28-9.42-5.59-3.89-10.27-2.11-11.82,4.6-1.27,5.5-2.32,11.06-3.42,16.61-.43,2.2-1.44,3.2-3.91,3.12-6.29-.18-12.59-.15-18.88,0-2.5.06-3.64-.7-4.09-3.32-1-5.56-2.24-11.08-3.52-16.59-1.5-6.49-6.12-8.2-11.6-4.38-4.55,3.18-9.12,6.34-13.59,9.62-1.83,1.34-3.08,1.5-4.82-.35-4.82-5.11-9.83-10-14.87-14.92-1.57-1.52-1.91-2.67-.48-4.59,3.31-4.45,6.28-9.15,9.55-13.63,4.27-5.84,2.36-10.74-4.79-12.14-5.43-1.06-10.83-2.27-16.27-3.31-1.91-.37-2.87-1-2.82-3.28.17-6.77.11-13.55,0-20.33,0-1.89.47-2.68,2.53-3,5.69-1,11.31-2.37,17-3.49,6.2-1.23,8.24-5.88,4.73-11.21-3.25-4.94-6.55-9.85-10-14.66-1.09-1.53-.94-2.4.33-3.65q7.92-7.74,15.67-15.65c1.35-1.37,2.41-1.5,4-.32,4.59,3.32,9.3,6.48,14,9.64,5.44,3.65,9.85,2,11.34-4.32,1.21-5.15,2.59-10.29,3.3-15.52.46-3.37,1.88-4.32,4.94-4a33.19,33.19,0,0,0,4,0c.16,15.34,3.5,30.06,8.85,44.37-2,1.44-4.38,1.2-6.6,1.52-12,1.74-20.23,8.38-24.56,19.47-4.18,10.71-2.49,20.9,4.61,30,13.67,17.62,41.86,15.1,51.84-5.65C516.65,892.73,516.92,890.52,518.84,889.31Z" transform="translate(-409.74 -657.48)"/>
    <path class="cls-5" d="M610.36,1027.89H582.74c-10.59-.73-17.6-8.42-18.14-20.14-.09-1.81,0-3.63.06-5.44a5.25,5.25,0,0,1,3.75-1q28.19-.09,56.36,0a5.2,5.2,0,0,1,3.72,1.1c-.16,3.81.39,7.63-.62,11.44A19.15,19.15,0,0,1,610.36,1027.89Z" transform="translate(-409.74 -657.48)"/>
    <path class="cls-6" d="M628.49,1002.4l-63.83-.09q0-6.07,0-12.14c.9-1.89,2.67-1.93,4.36-1.94q27.72-.12,55.45,0c1.45,0,2.94,0,4,1.35Z" transform="translate(-409.74 -657.48)"/>
    <path class="cls-5" d="M628.4,989.57l-60.64-.08a5.45,5.45,0,0,0-3.14.68q0-7.18-.07-14.36a32.09,32.09,0,0,0,9.31,1.21q22.3-.09,44.63,0a34.33,34.33,0,0,0,10.73-1.33C627.71,980.24,629,985,628.4,989.57Z" transform="translate(-409.74 -657.48)"/>
    <path class="cls-7" d="M470.06,723.81c-.1,4.77-4.43,7.75-8.43,6.2a16.07,16.07,0,0,1-3.42-2q-15.49-11-31-22.08a9.8,9.8,0,0,1-3.32-3.27,6,6,0,0,1,.78-7.07,6.05,6.05,0,0,1,6.91-1.78,10.12,10.12,0,0,1,2.82,1.59q15.93,11.34,31.83,22.72C468.45,719.68,470,721.51,470.06,723.81Z" transform="translate(-409.74 -657.48)"/>
    <path class="cls-7" d="M499.13,702.31a6.37,6.37,0,0,1-5.18,6.46,6.21,6.21,0,0,1-7.13-4.76c-1.94-6.85-3.6-13.77-5.38-20.66-1.54-6-3.16-11.9-4.56-17.89a6.25,6.25,0,0,1,4.4-7.68A5.91,5.91,0,0,1,489,662c3.54,13,6.8,26.15,10.15,39.24A4.4,4.4,0,0,1,499.13,702.31Z" transform="translate(-409.74 -657.48)"/>
    <path class="cls-7" d="M456,755.18c3.7.05,6.24,2.21,6.71,5.37a6.37,6.37,0,0,1-5,7c-6.29,1.7-12.65,3.16-19,4.74-6,1.49-11.93,3-17.91,4.51-4.81,1.18-8.29-.52-9.26-4.44-.86-3.51,1.3-6.61,5.79-7.77,12-3.11,24.11-6.11,36.18-9.12A18.29,18.29,0,0,1,456,755.18Z" transform="translate(-409.74 -657.48)"/>
    <path class="cls-7" d="M716.39,930a8.8,8.8,0,0,1,5.12,2.19c8.8,7.35,17.64,14.65,26.41,22,3.86,3.26,4.46,7,1.81,10-2.48,2.79-6.3,2.75-10-.3Q726.32,952.93,713,941.73c-2.44-2-3.51-4.61-2.3-7.73A6.19,6.19,0,0,1,716.39,930Z" transform="translate(-409.74 -657.48)"/>
    <path class="cls-8" d="M692.45,967.57c0,4.84,0,9.67,0,14.51-.06,4.66-2.32,7.36-6.12,7.49-4,.14-6.6-2.53-6.67-7.33q-.2-14.88,0-29.76c.06-4.66,2.9-7.57,6.69-7.4s6,3.06,6.1,7.61C692.5,957.65,692.45,962.61,692.45,967.57Z" transform="translate(-409.74 -657.48)"/>
    <path class="cls-7" d="M740.42,906.64c-5.08,0-10.16.06-15.24,0-4.25-.06-7-2.52-7.16-6.12s2.75-6.43,7.16-6.47q15.24-.1,30.47,0c4.25,0,7,2.63,7,6.28s-2.74,6.22-7,6.3C750.58,906.71,745.5,906.64,740.42,906.64Z" transform="translate(-409.74 -657.48)"/>
    <path class="cls-3" d="M711.45,797.16a41.33,41.33,0,0,1-33.82,15.34c-18.23-.38-32.07-9-39.88-25.57-7.72-16.4-5.84-32.41,5.32-46.73,8.82-11.32,20.7-17.14,35.3-16.76,3.44,1.79,5.65,4.9,8,7.77A116.9,116.9,0,0,1,712,793.28,9,9,0,0,1,711.45,797.16Z" transform="translate(-409.74 -657.48)"/>
    <path class="cls-9" d="M711.45,797.16c-2.32-26.95-12.07-50.69-30.54-70.66-.89-1-1.69-2-2.53-3.06,16.88-.59,33.35,10.22,40.6,26.67C725.87,765.74,722.65,785.84,711.45,797.16Z" transform="translate(-409.74 -657.48)"/>
    <path class="cls-10" d="M596.6,926.14c-1.21,0-2.43,0-3.63,0-2.21.11-2.84-1-3-3.09-1.2-15.19-8.78-26.32-22.15-33.35-7.57-4-15.59-7.1-22.65-12.1A88.71,88.71,0,0,1,513,835.8a83.58,83.58,0,0,1-5.75-33.23c.69-18.23,6-35,16.7-50a90.22,90.22,0,0,1,22.65-22.05c1.86-1.28,2.78-1.24,3.88.79,1.43,2.65,4.32,5.07,4.46,7.7.15,2.94-4,3.83-6.22,5.65C532.45,758,522.87,775.29,520.49,796A73,73,0,0,0,532,845.38c8.84,13.53,20.33,23.67,35.31,29.85,11,4.52,20.21,11.21,26.88,21.22,5.49,8.24,7.88,17.45,8.89,27.14.19,1.85-.57,2.7-2.48,2.57C599.26,926.07,597.93,926.14,596.6,926.14Z" transform="translate(-409.74 -657.48)"/>
    <path class="cls-7" d="M603.09,948.33v.73c0,9.56-1.37,10.69-10.85,9.05-1.43-.24-2.19-.91-2.2-2.34,0-5.07,0-10.14,0-15.22,0-1.31.52-2.06,1.91-2,.24,0,.48,0,.72,0C603.09,937.88,603.09,937.88,603.09,948.33Z" transform="translate(-409.74 -657.48)"/>
  </g>
</svg>
