<svg id="Layer_1" data-name="Layer 1" xmlns="http://www.w3.org/2000/svg" viewBox="0 0 374.57 313.87">
  <defs>
    <style>
      .cls-1 {
        fill: #0e2f4f;
      }

      .cls-2 {
        fill: #f49d19;
      }
    </style>
  </defs>
  <g>
    <path class="cls-1" d="M475.14,913.83c-.5,1.42-.92,2.82-1.47,4.16-2.58,6.34-8.81,9.79-15.38,8q-20.91-5.52-41.7-11.49c-6.91-2-10.7-9.26-8.66-16.41q15.58-54.51,31.38-108.95c2.15-7.41,8.86-11.15,16.35-9.16q20.35,5.43,40.61,11.25c6.37,1.82,9.84,6.64,9.74,13.36,0,1.93.15,2.22,2.12,1.88a252.31,252.31,0,0,1,32.68-3.42c.5-1-.24-1.65-.63-2.37a99.66,99.66,0,0,1-12.39-47.92c0-12.71.05-25.43-.07-38.15,0-3.36,1.26-5.22,4.39-6.43q29.58-11.36,59-23a8.64,8.64,0,0,1,6.8,0c19.42,7.63,38.84,15.26,58.34,22.69,3.73,1.42,5.17,3.46,5.1,7.46-.22,12.71,0,25.44-.12,38.15a96.17,96.17,0,0,1-15.1,51.62c-1.92,3-1.32,4.08,1.62,5.23a18.78,18.78,0,0,1,5.84,3.26c4.39,4,8.61,3.25,13.39.72,4.6-2.43,9.5-4.3,14.33-6.27,1.63-.67,2.14-1.37,2-3.26-.38-6.66,3.35-11.77,9.85-13.62,13.27-3.77,26.55-7.51,39.87-11.11,8-2.18,14.8,1.63,17.1,9.59q15.59,53.92,31.06,107.87c2.35,8.2-1.47,14.9-9.76,17.28-12.07,3.45-24.17,6.79-36.26,10.17-10.94,3.07-15,1.38-20.51-8.48-9.78,5.44-20.35,8.45-31.37,10-1.08.15-2,.15-2.74,1.42-5.82,9.85-7.62,11.14-18.75,14.06,3.82,13.5-1.28,24.86-13,29a20.83,20.83,0,0,1-15-.23c-1.25-.49-2.22-1.06-2.52,1-2.42,16.92-24.84,24.92-38,10.18-.65-.74-1.42-1.37-2.14-2.06-.84.84-.85,1.87-1.13,2.8a21.74,21.74,0,0,1-35.52,9.92,5.45,5.45,0,0,1-.82-.77c-2.33-3.22-4.7-4.15-8.91-2.38-7,2.94-14.71-.72-18.41-7.92-.89-1.73-1.45-2.14-3.53-1.42-12.19,4.19-23.13-5.71-20.51-18.42.31-1.51.37-2.28-1.4-3.1-7.73-3.6-10.86-9.55-9.45-17.86.3-1.76-.06-2.24-1.55-2.88-7.46-3.21-10.68-8.79-10-16.9C480.33,917.93,480.17,917.7,475.14,913.83Z" transform="translate(-407.38 -684.57)"/>
    <path class="cls-2" d="M545.47,812a115.26,115.26,0,0,0-21.4,28.43c-6.28,11.52-3.69,24.32,6.42,31.6s23,5.7,32-4c5.86-6.3,11.63-12.68,17.5-19,8.28-8.85,19.08-9.25,27.59-.79,20.61,20.48,41.08,41.09,61.66,61.6,5,5,5.66,11.11,2.66,16.69-2.8,5.22-8.78,7.56-14.73,6.14a12,12,0,0,1-5.71-3.34q-16-16-32.07-31.93a20.41,20.41,0,0,0-2.47-2.28,3.94,3.94,0,0,0-5.43.41A3.9,3.9,0,0,0,611,901a18.81,18.81,0,0,0,2.27,2.46c12.25,12.26,24.46,24.55,36.77,36.75,4.3,4.26,6,9.14,4,14.92-3.2,9.07-14.58,11.51-21.72,4.58-8.31-8.08-16.42-16.37-24.62-24.56l-13.22-13.23c-3.18-3.17-5.63-3.72-7.66-1.73s-1.57,4.59,1.5,7.68C598.6,938.23,609,948.49,619.14,959c5.49,5.65,5.4,13.57.22,18.7s-13.36,5.05-19.06-.53c-4.9-4.8-9.73-9.67-14.55-14.55-2-2-4.24-3.52-6.81-1.32-2.72,2.33-1.58,4.72.35,7.16,4.62,5.82,4,13.4-1.33,18.14s-12.91,4.35-18.24-.72c-4.28-4.06-4.28-4.06-.21-8.13,2.73-2.73,5.48-5.45,8.19-8.2,4.5-4.57,6-10,4.12-16.13s-6.39-9.71-12.7-10.66c-2-.29-2.51-.85-2.77-2.84A14.94,14.94,0,0,0,543,926.78c-2-.25-2.3-1-2.61-2.67C539,916.35,534.69,912,527,910.64c-2-.35-2.48-1-2.75-2.95a14.47,14.47,0,0,0-10-12.35,14.85,14.85,0,0,0-16,3.25c-3.83,3.57-7.5,7.32-11.11,11.1-1.33,1.38-2,1.31-3.56.1-4.71-3.59-5.55-7.3-3.73-13.25,7.8-25.43,14.9-51.08,22.18-76.66.7-2.44,1.6-4,4.45-4.53a292.62,292.62,0,0,1,36.77-3.81C543.89,811.52,544.68,811.17,545.47,812Z" transform="translate(-407.38 -684.57)"/>
    <path class="cls-2" d="M591.66,802.47c12.93.92,28,5.12,42.54,11a105.81,105.81,0,0,1,21.94,11.83c2.11,1.51,4.13,1.19,6.32.24,6.94-3,13.95-5.92,20.84-9.06,2.18-1,2.84-.71,3.51,1.63q12.45,43.56,25.14,87.06c.61,2.08.12,3.1-1.76,4.1a85.82,85.82,0,0,1-25.37,8.42c-2.09.38-2.8-.36-3.14-2.31-.8-4.57-3.24-8.28-6.48-11.52Q644.24,873,613.29,842c-11.54-11.46-27.95-11-39.14.85-6.07,6.45-12,13.05-18,19.52-5.84,6.25-14.12,7.33-20.54,2.8s-8.27-12.88-4.19-20.31c7.64-13.91,17-26.31,30.85-34.81C570.16,805.25,579.32,802.47,591.66,802.47Z" transform="translate(-407.38 -684.57)"/>
    <path class="cls-2" d="M497.42,804.8c-.74,2.69-1.61,5.92-2.53,9.13q-14.17,49.23-28.37,98.46c-1.57,5.44-3.22,6.33-8.72,4.8q-18.3-5.07-36.62-10.16c-5.07-1.42-6.06-3.14-4.61-8.15q15.26-53,30.57-106c1.31-4.55,3.21-5.64,7.71-4.39,12.57,3.48,25.13,7,37.69,10.52C495.23,799.79,497.47,800.91,497.42,804.8Z" transform="translate(-407.38 -684.57)"/>
    <path class="cls-2" d="M773.44,901.56c-.16,2.66-1.37,4.3-3.86,5-13.29,3.69-26.55,7.47-39.86,11.07-3.63,1-5.46-.38-6.67-4.56q-9.22-31.83-18.4-63.7-6.2-21.47-12.37-43c-1.15-4-.07-6.11,4-7.27q19.17-5.42,38.4-10.69c4.14-1.14,6.17,0,7.33,4Q757.48,846,772.87,899.54Z" transform="translate(-407.38 -684.57)"/>
    <path class="cls-2" d="M631.31,746.8a72.36,72.36,0,0,1-13.4,46.83c-2.28,3.23-4.27,4.33-8.43,3.23-11.27-3-22.77-4.29-34.32-1.26-1.93.51-2.73-.51-3.62-1.75A70.25,70.25,0,0,1,558,755c-.27-7.22,0-14.45-.12-21.68,0-1.91.54-2.78,2.38-3.48,10.79-4.09,21.54-8.33,32.27-12.59a5.26,5.26,0,0,1,4.24,0c10.72,4.26,21.46,8.5,32.26,12.58,1.94.73,2.33,1.75,2.28,3.57C631.24,737.22,631.31,741.08,631.31,746.8Z" transform="translate(-407.38 -684.57)"/>
    <path class="cls-2" d="M536.31,737.77c0-6.36.07-12.72,0-19.08,0-2,.4-3,2.43-3.81q27-10.32,53.86-20.89a5.3,5.3,0,0,1,4.24,0q26.88,10.54,53.84,20.93c1.54.59,2.44,1.16,2.39,3.09-.41,15,.76,29.93-.76,44.85a89.69,89.69,0,0,1-14.36,40c-1,1.54-1.86,2.33-3.88,1.37a41.44,41.44,0,0,0-8.06-2.89c-2.6-.63-2.11-1.5-.92-3.17a76.22,76.22,0,0,0,14.11-36.1c1.32-11.42.52-22.92.58-34.38,0-2.16-1.32-3.43-3.19-4.16-13.32-5.17-26.65-10.29-39.95-15.51a6,6,0,0,0-4.68.28l-38.56,15c-1.93.75-3.78,1.73-3.75,4.12.17,14.42-1.4,28.93,2,43.2a76.8,76.8,0,0,0,11.56,26.1c1.26,1.82,1.52,2.87-.94,3.61a19.5,19.5,0,0,0-3,1.54C555,804,551.4,803,549,799a92.11,92.11,0,0,1-12.71-45.87C536.25,748,536.31,742.88,536.31,737.77Z" transform="translate(-407.38 -684.57)"/>
    <path class="cls-2" d="M541.5,935.05a6.66,6.66,0,0,1,5.73,3.84c1.35,2.67,1.27,5.4-.86,7.62-5.16,5.38-10.43,10.65-15.67,16-2.53,2.56-5,5.15-7.65,7.63-3.38,3.22-7.84,3.35-10.61.43s-2.61-7.21.76-10.6q10.77-10.84,21.63-21.6C536.53,936.65,538.31,935.11,541.5,935.05Z" transform="translate(-407.38 -684.57)"/>
    <path class="cls-2" d="M531.91,926.45a6,6,0,0,1-2,4.53c-6.13,6.18-12.21,12.42-18.46,18.47a6.55,6.55,0,0,1-9.4.1,6.77,6.77,0,0,1-.57-9.73c6.25-6.59,12.71-13,19.21-19.31,2.07-2,4.79-2,7.32-.81S531.84,923.08,531.91,926.45Z" transform="translate(-407.38 -684.57)"/>
    <path class="cls-2" d="M564.12,958.37c.12,2-1,3.75-2.51,5.3-5.29,5.29-10.53,10.62-15.89,15.84-3.22,3.14-7.51,3.15-10.34.25s-2.85-6.8.25-10c5.44-5.65,11.06-11.14,16.63-16.67a6.54,6.54,0,0,1,7.91-1.3A6.7,6.7,0,0,1,564.12,958.37Z" transform="translate(-407.38 -684.57)"/>
    <path class="cls-2" d="M508.2,902.77c3.31.13,5.51,1.38,6.83,3.89s1.34,5.18-.54,7.35a128.18,128.18,0,0,1-15,15,6.45,6.45,0,0,1-8.84-.42c-2.43-2.45-3.4-5.57-1.26-8.43,4.62-6.18,10.36-11.34,16.16-16.4A7.22,7.22,0,0,1,508.2,902.77Z" transform="translate(-407.38 -684.57)"/>
    <path class="cls-1" d="M481,818.31a14,14,0,0,1-14.28,14.13,14.22,14.22,0,1,1,.15-28.44A14.11,14.11,0,0,1,481,818.31Z" transform="translate(-407.38 -684.57)"/>
    <path class="cls-1" d="M722.37,832.44a14.44,14.44,0,0,1-14.45-14.12A14.18,14.18,0,0,1,722.05,804a14.36,14.36,0,0,1,14.43,14.11A14.21,14.21,0,0,1,722.37,832.44Z" transform="translate(-407.38 -684.57)"/>
    <path class="cls-1" d="M574.53,759.58c2.14-.06,3.28,1.53,4.66,2.77,2.47,2.22,4.45,6.48,7.28,6.33,2.44-.12,4.72-4,7-6.25q8.74-8.68,17.44-17.43c1.35-1.35,2.77-2.57,4.89-2.1,3.68.82,4.5,4.74,1.48,7.82-6,6.14-12.13,12.17-18.21,18.25-3,3-5.93,6-9,9-2.78,2.65-4.68,2.64-7.4,0-3.66-3.56-7.24-7.2-10.85-10.82A4.37,4.37,0,0,1,570.7,762,3.83,3.83,0,0,1,574.53,759.58Z" transform="translate(-407.38 -684.57)"/>
    <path class="cls-2" d="M466.79,823.94a6,6,0,0,1-5.87-5.63,5.81,5.81,0,1,1,11.62-.11A6,6,0,0,1,466.79,823.94Z" transform="translate(-407.38 -684.57)"/>
    <path class="cls-2" d="M727.9,818a5.69,5.69,0,0,1-5.46,5.88,5.75,5.75,0,0,1-5.89-5.85,5.9,5.9,0,0,1,5.68-5.73A5.77,5.77,0,0,1,727.9,818Z" transform="translate(-407.38 -684.57)"/>
  </g>
</svg>
