<svg xmlns="http://www.w3.org/2000/svg" xmlns:xlink="http://www.w3.org/1999/xlink" width="519" zoomAndPan="magnify" viewBox="0 0 389.25 172.499995" height="230" preserveAspectRatio="xMidYMid meet" version="1.0"><defs><g/></defs><path fill="#f49d19" d="M 252.683594 18.578125 L 299.328125 56.765625 L 231.4375 56.765625 L 189.753906 22.640625 L 150.964844 54.785156 C 147.945312 54.070312 144.941406 53.382812 141.960938 52.734375 L 183.175781 18.578125 L 224.621094 18.578125 L 224.621094 7.578125 L 223.375 7.578125 L 223.375 5.648438 L 232.523438 5.648438 L 232.523438 7.578125 L 231.246094 7.578125 L 231.246094 18.578125 Z M 252.683594 18.578125 " fill-opacity="1" fill-rule="evenodd"/><path fill="#f49d19" d="M 49.554688 72.929688 C 78.539062 19.21875 182.878906 74.816406 248.886719 78.476562 C 293.25 80.933594 329.019531 79.011719 294.75 46.597656 C 344.71875 82.875 302.824219 106.855469 248.203125 103.066406 C 181.660156 98.453125 88.183594 33.53125 49.554688 72.929688 Z M 49.554688 72.929688 " fill-opacity="1" fill-rule="evenodd"/><path fill="#f49d19" d="M 109.875 36.019531 L 113.402344 36.019531 L 113.402344 39.546875 L 109.875 39.546875 Z M 114.4375 40.582031 L 117.964844 40.582031 L 117.964844 44.105469 L 114.4375 44.105469 Z M 109.875 40.582031 L 113.402344 40.582031 L 113.402344 44.105469 L 109.875 44.105469 Z M 114.4375 36.019531 L 117.964844 36.019531 L 117.964844 39.546875 L 114.4375 39.546875 Z M 114.4375 36.019531 " fill-opacity="1" fill-rule="evenodd"/><path fill="#f49d19" d="M 164.324219 21.109375 L 170.277344 25.984375 L 143.367188 48.285156 L 114.128906 24.351562 L 86.296875 47.417969 C 81.941406 47.929688 77.820312 48.792969 73.96875 50.042969 L 108.882812 21.109375 L 121.96875 21.109375 L 121.96875 14.8125 L 121.058594 14.8125 L 121.058594 13.109375 L 129.140625 13.109375 L 129.140625 14.8125 L 128.265625 14.8125 L 128.265625 21.109375 Z M 164.324219 21.109375 " fill-opacity="1" fill-rule="evenodd"/><path fill="#f49d19" d="M 48.308594 87.925781 C 43.609375 50.484375 132.582031 70.871094 162.183594 83.226562 C 122.585938 73.054688 63.402344 65.355469 48.308594 87.925781 Z M 48.308594 87.925781 " fill-opacity="1" fill-rule="evenodd"/><path fill="#f49d19" d="M 300.484375 58.105469 C 321.550781 87.957031 206.613281 72.945312 177.011719 60.589844 C 213.929688 68.550781 305.140625 78.527344 300.484375 58.105469 Z M 300.484375 58.105469 " fill-opacity="1" fill-rule="evenodd"/><path fill="#f49d19" d="M 183.890625 35.457031 L 188.789062 35.457031 L 188.789062 40.355469 L 183.890625 40.355469 Z M 190.226562 41.792969 L 195.121094 41.792969 L 195.121094 46.691406 L 190.226562 46.691406 Z M 183.890625 41.792969 L 188.789062 41.792969 L 188.789062 46.691406 L 183.890625 46.691406 Z M 190.226562 35.457031 L 195.121094 35.457031 L 195.121094 40.355469 L 190.226562 40.355469 Z M 190.226562 35.457031 " fill-opacity="1" fill-rule="evenodd"/><path fill="#f49d19" d="M 198.703125 3.683594 L 215.136719 17.136719 L 191.21875 17.136719 L 176.535156 5.113281 L 158.824219 19.726562 L 154.78125 19.726562 L 174.214844 3.683594 L 180.671875 3.683594 L 180.671875 0.964844 L 180.085938 0.964844 L 180.085938 0 L 184.660156 0 L 184.660156 0.964844 L 184.269531 0.964844 L 184.269531 3.683594 Z M 198.703125 3.683594 " fill-opacity="1" fill-rule="evenodd"/><g fill="#f49d19" fill-opacity="1"><g transform="translate(101.173411, 135.620604)"><g><path d="M 11.90625 -21.109375 C 13.457031 -21.109375 14.984375 -20.789062 16.484375 -20.15625 C 17.992188 -19.519531 19.28125 -18.660156 20.34375 -17.578125 L 17.25 -13.9375 C 16.570312 -14.769531 15.757812 -15.429688 14.8125 -15.921875 C 13.863281 -16.410156 12.925781 -16.65625 12 -16.65625 C 10.34375 -16.65625 8.953125 -16.070312 7.828125 -14.90625 C 6.710938 -13.738281 6.15625 -12.300781 6.15625 -10.59375 C 6.15625 -8.832031 6.710938 -7.363281 7.828125 -6.1875 C 8.953125 -5.007812 10.34375 -4.421875 12 -4.421875 C 12.875 -4.421875 13.785156 -4.640625 14.734375 -5.078125 C 15.679688 -5.515625 16.519531 -6.113281 17.25 -6.875 L 20.359375 -3.59375 C 19.222656 -2.4375 17.882812 -1.507812 16.34375 -0.8125 C 14.800781 -0.113281 13.257812 0.234375 11.71875 0.234375 C 8.570312 0.234375 5.953125 -0.789062 3.859375 -2.84375 C 1.765625 -4.894531 0.71875 -7.457031 0.71875 -10.53125 C 0.71875 -13.539062 1.785156 -16.054688 3.921875 -18.078125 C 6.054688 -20.097656 8.71875 -21.109375 11.90625 -21.109375 Z M 11.90625 -21.109375 "/></g></g></g><g fill="#f49d19" fill-opacity="1"><g transform="translate(122.621281, 135.620604)"><g><path d="M 7.421875 0 L 2.09375 0 L 2.09375 -20.9375 L 7.421875 -20.9375 Z M 7.421875 0 "/></g></g></g><g fill="#f49d19" fill-opacity="1"><g transform="translate(132.881564, 135.620604)"><g><path d="M 18.09375 -16.65625 L 11.78125 -16.65625 L 11.78125 0 L 6.453125 0 L 6.453125 -16.65625 L 0.203125 -16.65625 L 0.203125 -20.96875 L 18.09375 -20.96875 Z M 18.09375 -16.65625 "/></g></g></g><g fill="#f49d19" fill-opacity="1"><g transform="translate(151.906448, 135.620604)"><g><path d="M 12.890625 -6.765625 L 12.890625 0 L 7.59375 0 L 7.59375 -6.609375 L -0.15625 -20.9375 L 5.171875 -20.9375 L 10.234375 -11.8125 L 15.15625 -20.9375 L 20.484375 -20.9375 Z M 12.890625 -6.765625 "/></g></g></g><g fill="#f49d19" fill-opacity="1"><g transform="translate(172.995357, 135.620604)"><g/></g></g><g fill="#f49d19" fill-opacity="1"><g transform="translate(180.683086, 135.620604)"><g><path d="M 10.140625 -21.171875 C 13.265625 -21.171875 16.015625 -20.394531 18.390625 -18.84375 L 16.390625 -14.6875 C 15.296875 -15.320312 14.117188 -15.84375 12.859375 -16.25 C 11.597656 -16.65625 10.539062 -16.859375 9.6875 -16.859375 C 8.15625 -16.859375 7.390625 -16.351562 7.390625 -15.34375 C 7.390625 -14.6875 7.765625 -14.15625 8.515625 -13.75 C 9.273438 -13.351562 10.195312 -13.007812 11.28125 -12.71875 C 12.375 -12.4375 13.460938 -12.085938 14.546875 -11.671875 C 15.628906 -11.265625 16.550781 -10.601562 17.3125 -9.6875 C 18.070312 -8.769531 18.453125 -7.613281 18.453125 -6.21875 C 18.453125 -4.207031 17.664062 -2.640625 16.09375 -1.515625 C 14.519531 -0.390625 12.515625 0.171875 10.078125 0.171875 C 8.347656 0.171875 6.632812 -0.125 4.9375 -0.71875 C 3.238281 -1.3125 1.765625 -2.128906 0.515625 -3.171875 L 2.578125 -7.265625 C 3.628906 -6.347656 4.875 -5.59375 6.3125 -5 C 7.75 -4.414062 9.023438 -4.125 10.140625 -4.125 C 10.992188 -4.125 11.660156 -4.273438 12.140625 -4.578125 C 12.617188 -4.890625 12.859375 -5.347656 12.859375 -5.953125 C 12.859375 -6.523438 12.582031 -7.003906 12.03125 -7.390625 C 11.488281 -7.785156 10.804688 -8.078125 9.984375 -8.265625 C 9.171875 -8.453125 8.285156 -8.707031 7.328125 -9.03125 C 6.367188 -9.351562 5.476562 -9.703125 4.65625 -10.078125 C 3.84375 -10.453125 3.160156 -11.050781 2.609375 -11.875 C 2.066406 -12.707031 1.796875 -13.703125 1.796875 -14.859375 C 1.796875 -16.773438 2.554688 -18.304688 4.078125 -19.453125 C 5.609375 -20.597656 7.628906 -21.171875 10.140625 -21.171875 Z M 10.140625 -21.171875 "/></g></g></g><g fill="#f49d19" fill-opacity="1"><g transform="translate(200.695127, 135.620604)"><g><path d="M 11.90625 -21.109375 C 13.457031 -21.109375 14.984375 -20.789062 16.484375 -20.15625 C 17.992188 -19.519531 19.28125 -18.660156 20.34375 -17.578125 L 17.25 -13.9375 C 16.570312 -14.769531 15.757812 -15.429688 14.8125 -15.921875 C 13.863281 -16.410156 12.925781 -16.65625 12 -16.65625 C 10.34375 -16.65625 8.953125 -16.070312 7.828125 -14.90625 C 6.710938 -13.738281 6.15625 -12.300781 6.15625 -10.59375 C 6.15625 -8.832031 6.710938 -7.363281 7.828125 -6.1875 C 8.953125 -5.007812 10.34375 -4.421875 12 -4.421875 C 12.875 -4.421875 13.785156 -4.640625 14.734375 -5.078125 C 15.679688 -5.515625 16.519531 -6.113281 17.25 -6.875 L 20.359375 -3.59375 C 19.222656 -2.4375 17.882812 -1.507812 16.34375 -0.8125 C 14.800781 -0.113281 13.257812 0.234375 11.71875 0.234375 C 8.570312 0.234375 5.953125 -0.789062 3.859375 -2.84375 C 1.765625 -4.894531 0.71875 -7.457031 0.71875 -10.53125 C 0.71875 -13.539062 1.785156 -16.054688 3.921875 -18.078125 C 6.054688 -20.097656 8.71875 -21.109375 11.90625 -21.109375 Z M 11.90625 -21.109375 "/></g></g></g><g fill="#f49d19" fill-opacity="1"><g transform="translate(222.143, 135.620604)"><g><path d="M 16 -3.859375 L 6.84375 -3.859375 L 5.328125 0 L -0.15625 0 L 8.875 -20.9375 L 14.359375 -20.9375 L 23.171875 0 L 17.5 0 Z M 14.4375 -7.890625 L 11.453125 -15.640625 L 8.40625 -7.890625 Z M 14.4375 -7.890625 "/></g></g></g><g fill="#f49d19" fill-opacity="1"><g transform="translate(245.924113, 135.620604)"><g><path d="M 2.09375 -20.9375 L 11.21875 -20.9375 C 13.882812 -20.9375 15.953125 -20.300781 17.421875 -19.03125 C 18.898438 -17.769531 19.640625 -15.972656 19.640625 -13.640625 C 19.640625 -11.179688 18.898438 -9.273438 17.421875 -7.921875 C 15.953125 -6.566406 13.882812 -5.890625 11.21875 -5.890625 L 7.421875 -5.890625 L 7.421875 0 L 2.09375 0 Z M 7.421875 -16.75 L 7.421875 -10.078125 L 10.953125 -10.078125 C 12.117188 -10.078125 13.019531 -10.363281 13.65625 -10.9375 C 14.300781 -11.519531 14.625 -12.359375 14.625 -13.453125 C 14.625 -14.535156 14.300781 -15.351562 13.65625 -15.90625 C 13.019531 -16.46875 12.117188 -16.75 10.953125 -16.75 Z M 7.421875 -16.75 "/></g></g></g><g fill="#f49d19" fill-opacity="1"><g transform="translate(267.013024, 135.620604)"><g><path d="M 18.484375 -16.75 L 7.421875 -16.75 L 7.421875 -12.59375 L 17.40625 -12.59375 L 17.40625 -8.40625 L 7.421875 -8.40625 L 7.421875 -4.1875 L 18.8125 -4.1875 L 18.8125 0 L 2.09375 0 L 2.09375 -20.9375 L 18.484375 -20.9375 Z M 18.484375 -16.75 "/></g></g></g><g fill="#f49d19" fill-opacity="1"><g transform="translate(145.407491, 162.293299)"><g><path d="M 14.8125 0 L 12.3125 0 L 12.3125 -6.140625 L 4.453125 -6.140625 L 4.453125 0 L 1.953125 0 L 1.953125 -14.828125 L 4.453125 -14.828125 L 4.453125 -8.390625 L 12.3125 -8.390625 L 12.3125 -14.828125 L 14.8125 -14.828125 Z M 14.8125 0 "/></g></g></g><g fill="#f49d19" fill-opacity="1"><g transform="translate(166.397621, 162.293299)"><g><path d="M 2.984375 -12.734375 C 4.492188 -14.171875 6.359375 -14.890625 8.578125 -14.890625 C 10.796875 -14.890625 12.660156 -14.171875 14.171875 -12.734375 C 15.679688 -11.304688 16.4375 -9.53125 16.4375 -7.40625 C 16.4375 -5.289062 15.679688 -3.507812 14.171875 -2.0625 C 12.660156 -0.613281 10.796875 0.109375 8.578125 0.109375 C 6.359375 0.109375 4.492188 -0.613281 2.984375 -2.0625 C 1.472656 -3.507812 0.71875 -5.289062 0.71875 -7.40625 C 0.71875 -9.53125 1.472656 -11.304688 2.984375 -12.734375 Z M 8.609375 -12.65625 C 7.140625 -12.65625 5.878906 -12.148438 4.828125 -11.140625 C 3.785156 -10.128906 3.265625 -8.890625 3.265625 -7.421875 C 3.265625 -5.953125 3.789062 -4.703125 4.84375 -3.671875 C 5.894531 -2.648438 7.144531 -2.140625 8.59375 -2.140625 C 10.050781 -2.140625 11.296875 -2.648438 12.328125 -3.671875 C 13.359375 -4.703125 13.875 -5.953125 13.875 -7.421875 C 13.875 -8.890625 13.359375 -10.128906 12.328125 -11.140625 C 11.296875 -12.148438 10.054688 -12.65625 8.609375 -12.65625 Z M 8.609375 -12.65625 "/></g></g></g><g fill="#f49d19" fill-opacity="1"><g transform="translate(187.790146, 162.293299)"><g><path d="M 17.625 0 L 15.3125 0 L 15.296875 -11.078125 L 10.609375 -1.546875 L 8.984375 -1.546875 L 4.296875 -11.078125 L 4.296875 0 L 1.953125 0 L 1.953125 -14.828125 L 4.921875 -14.828125 L 9.8125 -4.984375 L 14.6875 -14.828125 L 17.625 -14.828125 Z M 17.625 0 "/></g></g></g><g fill="#f49d19" fill-opacity="1"><g transform="translate(211.61824, 162.293299)"><g><path d="M 12.546875 -12.578125 L 4.453125 -12.578125 L 4.453125 -8.578125 L 11.703125 -8.578125 L 11.703125 -6.328125 L 4.453125 -6.328125 L 4.453125 -2.25 L 12.796875 -2.25 L 12.796875 0 L 1.953125 0 L 1.953125 -14.828125 L 12.546875 -14.828125 Z M 12.546875 -12.578125 "/></g></g></g><g fill="#f49d19" fill-opacity="1"><g transform="translate(229.749238, 162.293299)"><g><path d="M 6.828125 -14.9375 C 8.742188 -14.9375 10.472656 -14.425781 12.015625 -13.40625 L 10.96875 -11.203125 C 9.457031 -12.117188 8.007812 -12.578125 6.625 -12.578125 C 5.882812 -12.578125 5.296875 -12.441406 4.859375 -12.171875 C 4.429688 -11.910156 4.21875 -11.53125 4.21875 -11.03125 C 4.21875 -10.539062 4.414062 -10.125 4.8125 -9.78125 C 5.207031 -9.4375 5.703125 -9.179688 6.296875 -9.015625 C 6.890625 -8.847656 7.53125 -8.640625 8.21875 -8.390625 C 8.914062 -8.148438 9.554688 -7.890625 10.140625 -7.609375 C 10.734375 -7.335938 11.222656 -6.90625 11.609375 -6.3125 C 12.003906 -5.726562 12.203125 -5.019531 12.203125 -4.1875 C 12.203125 -2.894531 11.679688 -1.859375 10.640625 -1.078125 C 9.609375 -0.304688 8.265625 0.078125 6.609375 0.078125 C 5.484375 0.078125 4.390625 -0.128906 3.328125 -0.546875 C 2.265625 -0.972656 1.335938 -1.546875 0.546875 -2.265625 L 1.625 -4.421875 C 2.375 -3.734375 3.195312 -3.203125 4.09375 -2.828125 C 4.988281 -2.453125 5.84375 -2.265625 6.65625 -2.265625 C 7.53125 -2.265625 8.207031 -2.421875 8.6875 -2.734375 C 9.175781 -3.054688 9.421875 -3.5 9.421875 -4.0625 C 9.421875 -4.570312 9.222656 -5 8.828125 -5.34375 C 8.429688 -5.695312 7.9375 -5.953125 7.34375 -6.109375 C 6.757812 -6.273438 6.117188 -6.472656 5.421875 -6.703125 C 4.734375 -6.941406 4.09375 -7.191406 3.5 -7.453125 C 2.90625 -7.710938 2.410156 -8.128906 2.015625 -8.703125 C 1.617188 -9.285156 1.421875 -9.988281 1.421875 -10.8125 C 1.421875 -12.0625 1.914062 -13.0625 2.90625 -13.8125 C 3.894531 -14.5625 5.203125 -14.9375 6.828125 -14.9375 Z M 6.828125 -14.9375 "/></g></g></g></svg>