<svg id="Layer_1" data-name="Layer 1" xmlns="http://www.w3.org/2000/svg" viewBox="0 0 347.07 335.29">
  <defs>
    <style>
      .cls-1 {
        fill: #0e2f4f;
      }

      .cls-2 {
        fill: #f49d19;
      }

      .cls-3 {
        fill: #f4af53;
      }

      .cls-4 {
        fill: #fefefe;
      }
    </style>
  </defs>
  <g>
    <path class="cls-1" d="M594.24,1009H475.29c-19.1,0-30.8-10.67-32.68-29.56Q436.45,917.71,430.16,856q-4.52-44.82-9-89.64c-.64-6.37,1.47-8.73,7.9-8.73,28.05,0,56.11-.05,84.16.07,2.92,0,3.67-.71,3.63-3.63-.16-14.22,0-28.43-.12-42.65a9.4,9.4,0,0,1,3.06-7.26q13.84-13.67,27.5-27.51a9.05,9.05,0,0,1,7-2.87q40.4.09,80.79,0a9.12,9.12,0,0,1,6.94,3q13.68,13.83,27.51,27.5a9.46,9.46,0,0,1,3,7.32c-.09,14.09,0,28.18-.12,42.27,0,3,.54,3.91,3.76,3.89,27.93-.15,55.86-.09,83.79-.08,6.88,0,8.81,2.31,8.11,9.23q-4.49,44.45-8.87,88.9-4.71,47.06-9.46,94.11c-1.05,10.41-2.12,20.82-3.09,31.25-1.52,16.35-13.92,27.88-30.42,27.91Q655.22,1009.09,594.24,1009Z" transform="translate(-421.08 -673.75)"/>
    <path class="cls-2" d="M594.62,805.49q76.5,0,153-.1c3.82,0,4.47,1.06,4.1,4.57q-4.89,46.65-9.52,93.33-3.84,38.3-7.6,76.61c-1,10.07-8.21,17.12-18.25,17.12q-121.76.06-243.52,0c-9.9,0-17.21-6.95-18.18-16.74q-5.08-51-10.25-101.89c-2.28-22.81-4.48-45.63-6.87-68.43-.37-3.5.28-4.58,4.1-4.57Q518.13,805.6,594.62,805.49Z" transform="translate(-421.08 -673.75)"/>
    <path class="cls-3" d="M594.81,769.57q78.36,0,156.73-.09c3.68,0,4.27,1.06,3.79,4.36-.86,5.79-1.39,11.63-1.88,17.47-.15,1.78-.72,2.47-2.47,2.22a13,13,0,0,0-1.87,0q-154.49,0-309,.09c-3.31,0-4.44-.89-4.63-4.14-.33-5.59-.94-11.18-1.7-16.73-.39-2.81.62-3.22,3.15-3.22q48.44.13,96.88.06Z" transform="translate(-421.08 -673.75)"/>
    <path class="cls-4" d="M594.62,715.69c11,0,22,.08,32.92-.06,2.44,0,3.09.61,3.06,3.06q-.2,18,0,35.91c0,2.44-.62,3.06-3.06,3q-32.91-.15-65.83,0c-2.44,0-3.09-.6-3.06-3q.2-18,0-35.91c0-2.44.62-3.09,3.06-3.06C572.68,715.77,583.65,715.69,594.62,715.69Z" transform="translate(-421.08 -673.75)"/>
    <path class="cls-2" d="M594.61,685.76c11,0,21.92.07,32.88-.06,2.47,0,3.21.7,3.1,3.14-.19,4.1-.13,8.22,0,12.33.06,1.89-.46,2.59-2.48,2.59q-33.45-.1-66.89,0c-2,0-2.59-.61-2.53-2.56.13-4.1.23-8.23,0-12.32-.17-2.84,1-3.19,3.45-3.17C572.93,685.82,583.77,685.76,594.61,685.76Z" transform="translate(-421.08 -673.75)"/>
    <path class="cls-2" d="M546.74,694.3c0,21,0,41,0,61.08,0,1.49-.29,2.28-2,2.25-4.61-.1-9.22-.09-13.83,0-1.63,0-2.15-.52-2.14-2.14q.06-20.75,0-41.5a3.83,3.83,0,0,1,1.21-3C535.36,705.68,540.71,700.31,546.74,694.3Z" transform="translate(-421.08 -673.75)"/>
    <path class="cls-2" d="M642.51,694.24c6.17,6.17,11.67,11.69,17.21,17.19.94.93.74,2.05.74,3.15,0,13.34-.06,26.68.07,40,0,2.53-.79,3.15-3.16,3-4.11-.17-8.23-.13-12.34,0-1.93.06-2.57-.49-2.56-2.5C642.54,735.19,642.51,715.25,642.51,694.24Z" transform="translate(-421.08 -673.75)"/>
    <path class="cls-1" d="M630.55,895.09c0-6-.08-12,0-17.93a23.91,23.91,0,0,1,47.82-.2q.24,18.31,0,36.62a23.91,23.91,0,0,1-47.82-.17C630.47,907.3,630.55,901.2,630.55,895.09Z" transform="translate(-421.08 -673.75)"/>
    <path class="cls-1" d="M516.81,895q0-16.83,0-33.67c0-6.08,1.92-8,8.11-8,8.85,0,17.7,0,26.56,0,4.48,0,7.12,2.2,7.2,5.83s-2.66,6.1-7.31,6.12c-6.48,0-13,.1-19.45,0-2.31,0-3.29.41-3.2,3,.2,6.1.15,12.22,0,18.33-.05,2.17.67,2.75,2.76,2.69,4.73-.14,9.47-.08,14.21,0,4.39,0,7,2.38,7,6.05s-2.71,5.86-7.15,5.9c-4.74,0-9.48.08-14.22,0-1.88,0-2.63.42-2.59,2.47q.18,9.54,0,19.08c0,2,.7,2.49,2.59,2.47,6.73-.1,13.46-.07,20.2,0,4.45,0,7.1,2.25,7.15,5.89s-2.61,6-7,6.06c-9.35,0-18.7.06-28.05,0-4.61,0-6.8-2.29-6.81-7C516.78,918.46,516.81,906.74,516.81,895Z" transform="translate(-421.08 -673.75)"/>
    <path class="cls-1" d="M570.69,895.27c0-6.1-.09-12.21,0-18.32a23.94,23.94,0,0,1,47.77-2c.49,4.78-1.58,8-5.4,8.31-3.66.32-6-2.14-6.52-6.92a12.06,12.06,0,0,0-12.44-11,11.86,11.86,0,0,0-11.43,12q-.15,17.94,0,35.89a11.92,11.92,0,0,0,11.45,12,12.05,12.05,0,0,0,12.42-11c.55-4.79,2.85-7.23,6.53-6.91s5.88,3.53,5.39,8.31a23.94,23.94,0,0,1-47.77-2C570.6,907.49,570.69,901.38,570.69,895.27Z" transform="translate(-421.08 -673.75)"/>
    <path class="cls-2" d="M666.45,895.39c0,5.73,0,11.47,0,17.2-.07,7.29-5.17,12.62-12,12.61s-11.91-5.35-11.94-12.64q-.09-17.4,0-34.79c0-7.07,5.11-12.32,11.77-12.41,6.81-.09,12,5.23,12.15,12.44v17.59Z" transform="translate(-421.08 -673.75)"/>
  </g>
</svg>
